# Blender 4.4.3
# www.blender.org
mtllib button_bi.mtl
g Cylinder.001_Cylinder.001
v 0.000000 -0.111715 -3.500000
v 0.195090 -0.111715 -3.480785
v 0.382683 -0.111715 -3.423880
v 0.555570 -0.111715 -3.331470
v 0.707107 -0.111715 -3.207107
v 0.831470 -0.111715 -3.055570
v 0.923880 -0.111715 -2.882684
v 0.980785 -0.111715 -2.695090
v 1.000000 -0.111715 -2.500000
v 0.980785 -0.111715 -2.304910
v 0.923880 -0.111715 -2.117316
v 0.831470 -0.111715 -1.944430
v 0.707107 -0.111715 -1.792893
v 0.555570 -0.111715 -1.668530
v 0.382683 -0.111715 -1.576120
v 0.195090 -0.111715 -1.519215
v 0.000000 -0.111715 -1.500000
v -0.195090 -0.111715 -1.519215
v -0.382683 -0.111715 -1.576120
v -0.555570 -0.111715 -1.668530
v -0.707107 -0.111715 -1.792893
v -0.831470 -0.111715 -1.944430
v -0.923880 -0.111715 -2.117316
v -0.980785 -0.111715 -2.304910
v -1.000000 -0.111715 -2.500000
v -0.980785 -0.111715 -2.695090
v -0.923880 -0.111715 -2.882684
v -0.831470 -0.111715 -3.055570
v -0.707107 -0.111715 -3.207107
v -0.555570 -0.111715 -3.331470
v -0.382683 -0.111715 -3.423880
v -0.195090 -0.111715 -3.480785
v 0.000000 0.103518 -3.441481
v 0.000000 0.097250 -3.500000
v 0.183674 0.103518 -3.423391
v 0.195090 0.097250 -3.480785
v 0.360289 0.103518 -3.369815
v 0.382683 0.097250 -3.423880
v 0.523059 0.103518 -3.282813
v 0.555570 0.097250 -3.331470
v 0.665728 0.103518 -3.165728
v 0.707107 0.097250 -3.207107
v 0.782813 0.103518 -3.023059
v 0.831470 0.097250 -3.055570
v 0.869815 0.103518 -2.860289
v 0.923880 0.097250 -2.882684
v 0.923391 0.103518 -2.683674
v 0.980785 0.097250 -2.695090
v 0.941481 0.103518 -2.500000
v 1.000000 0.097250 -2.500000
v 0.923391 0.103518 -2.316326
v 0.980785 0.097250 -2.304910
v 0.869815 0.103518 -2.139711
v 0.923880 0.097250 -2.117316
v 0.782813 0.103518 -1.976941
v 0.831470 0.097250 -1.944430
v 0.665728 0.103518 -1.834272
v 0.707107 0.097250 -1.792893
v 0.523059 0.103518 -1.717187
v 0.555570 0.097250 -1.668530
v 0.360289 0.103518 -1.630185
v 0.382683 0.097250 -1.576120
v 0.183674 0.103518 -1.576609
v 0.195090 0.097250 -1.519215
v 0.000000 0.103518 -1.558519
v 0.000000 0.097250 -1.500000
v -0.183674 0.103518 -1.576609
v -0.195090 0.097250 -1.519215
v -0.360289 0.103518 -1.630185
v -0.382683 0.097250 -1.576120
v -0.523059 0.103518 -1.717187
v -0.555570 0.097250 -1.668530
v -0.665728 0.103518 -1.834272
v -0.707107 0.097250 -1.792893
v -0.782813 0.103518 -1.976941
v -0.831470 0.097250 -1.944430
v -0.869815 0.103518 -2.139711
v -0.923880 0.097250 -2.117316
v -0.923391 0.103518 -2.316326
v -0.980785 0.097250 -2.304910
v -0.941481 0.103518 -2.500000
v -1.000000 0.097250 -2.500000
v -0.923391 0.103518 -2.683674
v -0.980785 0.097250 -2.695090
v -0.869815 0.103518 -2.860289
v -0.923880 0.097250 -2.882684
v -0.782813 0.103518 -3.023059
v -0.831470 0.097250 -3.055570
v -0.665728 0.103518 -3.165728
v -0.707107 0.097250 -3.207107
v -0.523059 0.103518 -3.282813
v -0.555570 0.097250 -3.331470
v -0.360289 0.103518 -3.369815
v -0.382683 0.097250 -3.423880
v -0.183674 0.103518 -3.423391
v -0.195090 0.097250 -3.480785
v 0.000000 0.155702 -3.441481
v 0.183674 0.155702 -3.423391
v 0.360289 0.155702 -3.369815
v 0.523059 0.155702 -3.282813
v 0.665728 0.155702 -3.165728
v 0.782813 0.155702 -3.023059
v 0.869815 0.155702 -2.860289
v 0.923391 0.155702 -2.683674
v 0.941481 0.155702 -2.500000
v 0.923391 0.155702 -2.316326
v 0.869815 0.155702 -2.139711
v 0.782813 0.155702 -1.976941
v 0.665728 0.155702 -1.834272
v 0.523059 0.155702 -1.717187
v 0.360289 0.155702 -1.630185
v 0.183674 0.155702 -1.576609
v 0.000000 0.155702 -1.558519
v -0.183674 0.155702 -1.576609
v -0.360289 0.155702 -1.630185
v -0.523059 0.155702 -1.717187
v -0.665728 0.155702 -1.834272
v -0.782813 0.155702 -1.976941
v -0.869815 0.155702 -2.139711
v -0.923391 0.155702 -2.316326
v -0.941481 0.155702 -2.500000
v -0.923391 0.155702 -2.683674
v -0.869815 0.155702 -2.860289
v -0.782813 0.155702 -3.023059
v -0.665728 0.155702 -3.165728
v -0.523059 0.155702 -3.282813
v -0.360289 0.155702 -3.369815
v -0.183674 0.155702 -3.423391
vn -0.0980 -0.0000 -0.9952
vn 0.4714 -0.0000 -0.8819
vn 0.6344 -0.0000 -0.7730
vn 0.7730 -0.0000 -0.6344
vn 0.8819 -0.0000 -0.4714
vn 0.9569 -0.0000 -0.2903
vn 0.9952 -0.0000 -0.0980
vn 0.9952 -0.0000 0.0980
vn 0.9569 -0.0000 0.2903
vn 0.8819 -0.0000 0.4714
vn 0.7730 -0.0000 0.6344
vn 0.6344 -0.0000 0.7730
vn 0.4714 -0.0000 0.8819
vn 0.2903 -0.0000 0.9569
vn 0.0980 -0.0000 0.9952
vn -0.0980 -0.0000 0.9952
vn -0.2903 -0.0000 0.9569
vn -0.4714 -0.0000 0.8819
vn -0.6344 -0.0000 0.7730
vn -0.7730 -0.0000 0.6344
vn -0.8819 -0.0000 0.4714
vn -0.9569 -0.0000 0.2903
vn -0.9952 -0.0000 0.0980
vn -0.9952 -0.0000 -0.0980
vn -0.9569 -0.0000 -0.2903
vn -0.8819 -0.0000 -0.4714
vn -0.7730 -0.0000 -0.6344
vn -0.6344 -0.0000 -0.7730
vn -0.4714 -0.0000 -0.8819
vn -0.2903 -0.0000 -0.9569
vn 0.0980 -0.0000 -0.9952
vn 0.2903 -0.0000 -0.9569
vn -0.0000 -1.0000 -0.0000
vn 0.0105 0.9943 -0.1065
vn 0.0311 0.9943 -0.1024
vn 0.0504 0.9943 -0.0944
vn 0.0679 0.9943 -0.0827
vn 0.0827 0.9943 -0.0679
vn 0.0944 0.9943 -0.0504
vn 0.1024 0.9943 -0.0311
vn 0.1065 0.9943 -0.0105
vn 0.1065 0.9943 0.0105
vn 0.1024 0.9943 0.0311
vn 0.0944 0.9943 0.0504
vn 0.0827 0.9943 0.0679
vn 0.0679 0.9943 0.0827
vn 0.0504 0.9943 0.0944
vn 0.0311 0.9943 0.1024
vn 0.0105 0.9943 0.1065
vn -0.0105 0.9943 0.1065
vn -0.0311 0.9943 0.1024
vn -0.0504 0.9943 0.0944
vn -0.0679 0.9943 0.0827
vn -0.0827 0.9943 0.0679
vn -0.0944 0.9943 0.0504
vn -0.1024 0.9943 0.0311
vn -0.1065 0.9943 0.0105
vn -0.1065 0.9943 -0.0105
vn -0.1024 0.9943 -0.0311
vn -0.0944 0.9943 -0.0504
vn -0.0827 0.9943 -0.0679
vn -0.0679 0.9943 -0.0827
vn -0.0504 0.9943 -0.0944
vn -0.0311 0.9943 -0.1024
vn -0.0105 0.9943 -0.1065
vn -0.0000 1.0000 -0.0000
vt 0.031250 0.500000
vt 0.031250 0.985441
vt 0.000000 0.985441
vt 0.000000 0.500000
vt 0.937500 0.500000
vt 0.937500 0.985441
vt 0.906250 0.985441
vt 0.906250 0.500000
vt 0.875000 0.985441
vt 0.875000 0.500000
vt 0.875000 0.985441
vt 0.843750 0.985441
vt 0.843750 0.500000
vt 0.843750 0.985441
vt 0.812500 0.985441
vt 0.812500 0.500000
vt 0.781250 0.985441
vt 0.781250 0.500000
vt 0.750000 0.985441
vt 0.750000 0.500000
vt 0.718750 0.985441
vt 0.718750 0.500000
vt 0.718750 0.985441
vt 0.687500 0.985441
vt 0.687500 0.500000
vt 0.656250 0.985441
vt 0.656250 0.500000
vt 0.625000 0.985441
vt 0.625000 0.500000
vt 0.625000 0.985441
vt 0.593750 0.985441
vt 0.593750 0.500000
vt 0.593750 0.985441
vt 0.562500 0.985441
vt 0.562500 0.500000
vt 0.531250 0.985441
vt 0.531250 0.500000
vt 0.500000 0.985441
vt 0.500000 0.500000
vt 0.468750 0.985441
vt 0.468750 0.500000
vt 0.437500 0.985441
vt 0.437500 0.500000
vt 0.406250 0.985441
vt 0.406250 0.500000
vt 0.375000 0.985441
vt 0.375000 0.500000
vt 0.375000 0.985441
vt 0.343750 0.985441
vt 0.343750 0.500000
vt 0.343750 0.985441
vt 0.312500 0.985441
vt 0.312500 0.500000
vt 0.281250 0.985441
vt 0.281250 0.500000
vt 0.250000 0.985441
vt 0.250000 0.500000
vt 0.218750 0.985441
vt 0.218750 0.500000
vt 0.187500 0.985441
vt 0.187500 0.500000
vt 0.156250 0.985441
vt 0.156250 0.500000
vt 0.125000 0.985441
vt 0.125000 0.500000
vt 0.125000 0.985441
vt 0.093750 0.985441
vt 0.093750 0.500000
vt 0.093750 0.985441
vt 0.062500 0.985441
vt 0.062500 0.500000
vt 1.000000 0.500000
vt 1.000000 0.985441
vt 0.968750 0.985441
vt 0.968750 0.500000
vt 0.968750 0.985441
vt 0.750000 0.490000
vt 0.796822 0.485388
vt 0.841844 0.471731
vt 0.883337 0.449553
vt 0.919706 0.419706
vt 0.949553 0.383337
vt 0.971731 0.341844
vt 0.985388 0.296822
vt 0.990000 0.250000
vt 0.985388 0.203178
vt 0.971731 0.158156
vt 0.949553 0.116663
vt 0.919706 0.080294
vt 0.883337 0.050447
vt 0.841844 0.028269
vt 0.796822 0.014612
vt 0.750000 0.010000
vt 0.703178 0.014612
vt 0.658156 0.028269
vt 0.616663 0.050447
vt 0.580294 0.080294
vt 0.550447 0.116663
vt 0.528269 0.158156
vt 0.514612 0.203178
vt 0.510000 0.250000
vt 0.514612 0.296822
vt 0.528269 0.341844
vt 0.550447 0.383337
vt 0.580294 0.419706
vt 0.616663 0.449553
vt 0.658156 0.471731
vt 0.703178 0.485388
vt 0.296822 0.485388
vt 0.250000 0.490000
vt 0.250000 0.475956
vt 0.294082 0.471614
vt 0.341844 0.471731
vt 0.336469 0.458756
vt 0.383337 0.449553
vt 0.375534 0.437875
vt 0.419706 0.419706
vt 0.409775 0.409775
vt 0.449553 0.383337
vt 0.437875 0.375534
vt 0.471731 0.341844
vt 0.458756 0.336469
vt 0.485388 0.296822
vt 0.471614 0.294082
vt 0.490000 0.250000
vt 0.475956 0.250000
vt 0.485388 0.203178
vt 0.471614 0.205918
vt 0.471731 0.158156
vt 0.458756 0.163531
vt 0.449553 0.116663
vt 0.437875 0.124466
vt 0.419706 0.080294
vt 0.409775 0.090225
vt 0.383337 0.050447
vt 0.375534 0.062125
vt 0.341844 0.028269
vt 0.336469 0.041244
vt 0.296822 0.014612
vt 0.294082 0.028386
vt 0.250000 0.010000
vt 0.250000 0.024045
vt 0.203178 0.014612
vt 0.205918 0.028386
vt 0.158156 0.028269
vt 0.163531 0.041244
vt 0.116663 0.050447
vt 0.124466 0.062125
vt 0.080294 0.080294
vt 0.090225 0.090225
vt 0.050447 0.116663
vt 0.062125 0.124466
vt 0.028269 0.158156
vt 0.041244 0.163531
vt 0.014612 0.203178
vt 0.028386 0.205918
vt 0.010000 0.250000
vt 0.024045 0.250000
vt 0.014612 0.296822
vt 0.028386 0.294082
vt 0.028269 0.341844
vt 0.041244 0.336469
vt 0.050447 0.383337
vt 0.062125 0.375534
vt 0.080294 0.419706
vt 0.090225 0.409775
vt 0.116663 0.449553
vt 0.124466 0.437875
vt 0.158156 0.471731
vt 0.163531 0.458756
vt 0.203178 0.485388
vt 0.205918 0.471614
s 0
usemtl Material.002
f 32/1/1 96/2/1 34/3/1 1/4/1
f 3/5/2 38/6/2 40/7/2 4/8/2
f 4/8/3 40/7/3 42/9/3 5/10/3
f 5/10/4 42/11/4 44/12/4 6/13/4
f 6/13/5 44/14/5 46/15/5 7/16/5
f 7/16/6 46/15/6 48/17/6 8/18/6
f 8/18/7 48/17/7 50/19/7 9/20/7
f 9/20/8 50/19/8 52/21/8 10/22/8
f 10/22/9 52/23/9 54/24/9 11/25/9
f 11/25/10 54/24/10 56/26/10 12/27/10
f 12/27/11 56/26/11 58/28/11 13/29/11
f 13/29/12 58/30/12 60/31/12 14/32/12
f 14/32/13 60/33/13 62/34/13 15/35/13
f 15/35/14 62/34/14 64/36/14 16/37/14
f 16/37/15 64/36/15 66/38/15 17/39/15
f 17/39/16 66/38/16 68/40/16 18/41/16
f 18/41/17 68/40/17 70/42/17 19/43/17
f 19/43/18 70/42/18 72/44/18 20/45/18
f 20/45/19 72/44/19 74/46/19 21/47/19
f 21/47/20 74/48/20 76/49/20 22/50/20
f 22/50/21 76/51/21 78/52/21 23/53/21
f 23/53/22 78/52/22 80/54/22 24/55/22
f 24/55/23 80/54/23 82/56/23 25/57/23
f 25/57/24 82/56/24 84/58/24 26/59/24
f 26/59/25 84/58/25 86/60/25 27/61/25
f 27/61/26 86/60/26 88/62/26 28/63/26
f 28/63/27 88/62/27 90/64/27 29/65/27
f 29/65/28 90/66/28 92/67/28 30/68/28
f 30/68/29 92/69/29 94/70/29 31/71/29
f 31/71/30 94/70/30 96/2/30 32/1/30
f 1/72/31 34/73/31 36/74/31 2/75/31
f 2/75/32 36/76/32 38/6/32 3/5/32
f 1/77/33 2/78/33 3/79/33 4/80/33 5/81/33 6/82/33 7/83/33 8/84/33 9/85/33 10/86/33 11/87/33 12/88/33 13/89/33 14/90/33 15/91/33 16/92/33 17/93/33 18/94/33 19/95/33 20/96/33 21/97/33 22/98/33 23/99/33 24/100/33 25/101/33 26/102/33 27/103/33 28/104/33 29/105/33 30/106/33 31/107/33 32/108/33
f 36/109/34 34/110/34 33/111/34 35/112/34
f 38/113/35 36/109/35 35/112/35 37/114/35
f 40/115/36 38/113/36 37/114/36 39/116/36
f 42/117/37 40/115/37 39/116/37 41/118/37
f 44/119/38 42/117/38 41/118/38 43/120/38
f 46/121/39 44/119/39 43/120/39 45/122/39
f 48/123/40 46/121/40 45/122/40 47/124/40
f 50/125/41 48/123/41 47/124/41 49/126/41
f 52/127/42 50/125/42 49/126/42 51/128/42
f 54/129/43 52/127/43 51/128/43 53/130/43
f 56/131/44 54/129/44 53/130/44 55/132/44
f 58/133/45 56/131/45 55/132/45 57/134/45
f 60/135/46 58/133/46 57/134/46 59/136/46
f 62/137/47 60/135/47 59/136/47 61/138/47
f 64/139/48 62/137/48 61/138/48 63/140/48
f 66/141/49 64/139/49 63/140/49 65/142/49
f 68/143/50 66/141/50 65/142/50 67/144/50
f 70/145/51 68/143/51 67/144/51 69/146/51
f 72/147/52 70/145/52 69/146/52 71/148/52
f 74/149/53 72/147/53 71/148/53 73/150/53
f 76/151/54 74/149/54 73/150/54 75/152/54
f 78/153/55 76/151/55 75/152/55 77/154/55
f 80/155/56 78/153/56 77/154/56 79/156/56
f 82/157/57 80/155/57 79/156/57 81/158/57
f 84/159/58 82/157/58 81/158/58 83/160/58
f 86/161/59 84/159/59 83/160/59 85/162/59
f 88/163/60 86/161/60 85/162/60 87/164/60
f 90/165/61 88/163/61 87/164/61 89/166/61
f 92/167/62 90/165/62 89/166/62 91/168/62
f 94/169/63 92/167/63 91/168/63 93/170/63
f 96/171/64 94/169/64 93/170/64 95/172/64
f 34/110/65 96/171/65 95/172/65 33/111/65
f 47/124/6 45/122/6 103/122/6 104/124/6
f 98/112/66 97/111/66 128/172/66 127/170/66 126/168/66 125/166/66 124/164/66 123/162/66 122/160/66 121/158/66 120/156/66 119/154/66 118/152/66 117/150/66 116/148/66 115/146/66 114/144/66 113/142/66 112/140/66 111/138/66 110/136/66 109/134/66 108/132/66 107/130/66 106/128/66 105/126/66 104/124/66 103/122/66 102/120/66 101/118/66 100/116/66 99/114/66
f 65/142/15 63/140/15 112/140/15 113/142/15
f 83/160/24 81/158/24 121/158/24 122/160/24
f 39/116/2 37/114/2 99/114/2 100/116/2
f 57/134/11 55/132/11 108/132/11 109/134/11
f 75/152/20 73/150/20 117/150/20 118/152/20
f 93/170/29 91/168/29 126/168/29 127/170/29
f 49/126/7 47/124/7 104/124/7 105/126/7
f 67/144/16 65/142/16 113/142/16 114/144/16
f 85/162/25 83/160/25 122/160/25 123/162/25
f 41/118/3 39/116/3 100/116/3 101/118/3
f 59/136/12 57/134/12 109/134/12 110/136/12
f 77/154/21 75/152/21 118/152/21 119/154/21
f 95/172/30 93/170/30 127/170/30 128/172/30
f 51/128/8 49/126/8 105/126/8 106/128/8
f 69/146/17 67/144/17 114/144/17 115/146/17
f 87/164/26 85/162/26 123/162/26 124/164/26
f 33/111/1 95/172/1 128/172/1 97/111/1
f 43/120/4 41/118/4 101/118/4 102/120/4
f 61/138/13 59/136/13 110/136/13 111/138/13
f 79/156/22 77/154/22 119/154/22 120/156/22
f 35/112/31 33/111/31 97/111/31 98/112/31
f 53/130/9 51/128/9 106/128/9 107/130/9
f 71/148/18 69/146/18 115/146/18 116/148/18
f 89/166/27 87/164/27 124/164/27 125/166/27
f 45/122/5 43/120/5 102/120/5 103/122/5
f 63/140/14 61/138/14 111/138/14 112/140/14
f 81/158/23 79/156/23 120/156/23 121/158/23
f 37/114/32 35/112/32 98/112/32 99/114/32
f 55/132/10 53/130/10 107/130/10 108/132/10
f 73/150/19 71/148/19 116/148/19 117/150/19
f 91/168/28 89/166/28 125/166/28 126/168/28
g Text.001_Text.001
v -0.481170 0.239795 -1.852180
v -0.481170 0.239795 -1.865305
v -0.438152 0.239795 -1.909188
v -0.393023 0.239795 -1.955272
v -0.346363 0.239795 -2.003178
v -0.298751 0.239795 -2.052530
v -0.250768 0.239795 -2.102949
v -0.202993 0.239795 -2.154059
v -0.156008 0.239795 -2.205481
v -0.110392 0.239795 -2.256838
v -0.066725 0.239795 -2.307752
v -0.025587 0.239795 -2.357846
v 0.012442 0.239795 -2.406742
v 0.046780 0.239795 -2.454062
v 0.063859 0.239795 -2.479071
v 0.079452 0.239795 -2.502726
v 0.093561 0.239795 -2.525313
v 0.106184 0.239795 -2.547119
v 0.117322 0.239795 -2.568429
v 0.126975 0.239795 -2.589532
v 0.135143 0.239795 -2.610713
v 0.141826 0.239795 -2.632258
v 0.147024 0.239795 -2.654455
v 0.150737 0.239795 -2.677589
v 0.152964 0.239795 -2.701947
v 0.153707 0.239795 -2.727815
v 0.151429 0.239795 -2.762079
v 0.144766 0.239795 -2.794422
v 0.133972 0.239795 -2.824642
v 0.119302 0.239795 -2.852539
v 0.101013 0.239795 -2.877909
v 0.079360 0.239795 -2.900551
v 0.054597 0.239795 -2.920264
v 0.026979 0.239795 -2.936845
v -0.003237 0.239795 -2.950093
v -0.035797 0.239795 -2.959805
v -0.070445 0.239795 -2.965781
v -0.106927 0.239795 -2.967818
v -0.134267 0.239795 -2.966930
v -0.161731 0.239795 -2.964154
v -0.189349 0.239795 -2.959321
v -0.217153 0.239795 -2.952262
v -0.245174 0.239795 -2.942806
v -0.273443 0.239795 -2.930786
v -0.301989 0.239795 -2.916031
v -0.330845 0.239795 -2.898372
v -0.360042 0.239795 -2.877641
v -0.389610 0.239795 -2.853667
v -0.419580 0.239795 -2.826282
v -0.449983 0.239795 -2.795316
v -0.449983 0.239795 -3.025943
v -0.419528 0.239795 -3.045672
v -0.389383 0.239795 -3.063617
v -0.359485 0.239795 -3.079792
v -0.329773 0.239795 -3.094208
v -0.300184 0.239795 -3.106879
v -0.270658 0.239795 -3.117819
v -0.241131 0.239795 -3.127040
v -0.211543 0.239795 -3.134556
v -0.181831 0.239795 -3.140378
v -0.151933 0.239795 -3.144521
v -0.121788 0.239795 -3.146997
v -0.091333 0.239795 -3.147820
v -0.024657 0.239795 -3.144473
v 0.038128 0.239795 -3.134642
v 0.096659 0.239795 -3.118640
v 0.150572 0.239795 -3.096777
v 0.199504 0.239795 -3.069368
v 0.243091 0.239795 -3.036725
v 0.280970 0.239795 -2.999159
v 0.312777 0.239795 -2.956984
v 0.338149 0.239795 -2.910512
v 0.356721 0.239795 -2.860056
v 0.368131 0.239795 -2.805928
v 0.372016 0.239795 -2.748440
v 0.369190 0.239795 -2.696997
v 0.360547 0.239795 -2.646269
v 0.345841 0.239795 -2.595567
v 0.324823 0.239795 -2.544202
v 0.297245 0.239795 -2.491482
v 0.262861 0.239795 -2.436718
v 0.221423 0.239795 -2.379220
v 0.172683 0.239795 -2.318297
v 0.116394 0.239795 -2.253259
v 0.052308 0.239795 -2.183417
v -0.019822 0.239795 -2.108079
v -0.100244 0.239795 -2.026557
v 0.481170 0.239795 -2.026557
v 0.481170 0.239795 -1.852180
v -0.481170 0.059795 -1.852180
v -0.481170 0.059795 -1.865305
v -0.438152 0.059795 -1.909188
v -0.393023 0.059795 -1.955272
v -0.346363 0.059795 -2.003178
v -0.298751 0.059795 -2.052530
v -0.250768 0.059795 -2.102949
v -0.202993 0.059795 -2.154059
v -0.156008 0.059795 -2.205481
v -0.110392 0.059795 -2.256838
v -0.066725 0.059795 -2.307752
v -0.025587 0.059795 -2.357846
v 0.012442 0.059795 -2.406742
v 0.046780 0.059795 -2.454062
v 0.063859 0.059795 -2.479071
v 0.079452 0.059795 -2.502726
v 0.093561 0.059795 -2.525313
v 0.106184 0.059795 -2.547119
v 0.117322 0.059795 -2.568429
v 0.126975 0.059795 -2.589532
v 0.135143 0.059795 -2.610713
v 0.141826 0.059795 -2.632258
v 0.147024 0.059795 -2.654455
v 0.150737 0.059795 -2.677589
v 0.152964 0.059795 -2.701947
v 0.153707 0.059795 -2.727815
v 0.151429 0.059795 -2.762079
v 0.144766 0.059795 -2.794422
v 0.133972 0.059795 -2.824642
v 0.119302 0.059795 -2.852539
v 0.101013 0.059795 -2.877909
v 0.079360 0.059795 -2.900551
v 0.054597 0.059795 -2.920264
v 0.026979 0.059795 -2.936845
v -0.003237 0.059795 -2.950093
v -0.035797 0.059795 -2.959805
v -0.070445 0.059795 -2.965781
v -0.106927 0.059795 -2.967818
v -0.134267 0.059795 -2.966930
v -0.161731 0.059795 -2.964154
v -0.189349 0.059795 -2.959321
v -0.217153 0.059795 -2.952262
v -0.245174 0.059795 -2.942806
v -0.273443 0.059795 -2.930786
v -0.301989 0.059795 -2.916031
v -0.330845 0.059795 -2.898372
v -0.360042 0.059795 -2.877641
v -0.389610 0.059795 -2.853667
v -0.419580 0.059795 -2.826282
v -0.449983 0.059795 -2.795316
v -0.449983 0.059795 -3.025943
v -0.419528 0.059795 -3.045672
v -0.389383 0.059795 -3.063617
v -0.359485 0.059795 -3.079792
v -0.329773 0.059795 -3.094208
v -0.300184 0.059795 -3.106879
v -0.270658 0.059795 -3.117819
v -0.241131 0.059795 -3.127040
v -0.211543 0.059795 -3.134556
v -0.181831 0.059795 -3.140378
v -0.151933 0.059795 -3.144521
v -0.121788 0.059795 -3.146997
v -0.091333 0.059795 -3.147820
v -0.024657 0.059795 -3.144473
v 0.038128 0.059795 -3.134642
v 0.096659 0.059795 -3.118640
v 0.150572 0.059795 -3.096777
v 0.199504 0.059795 -3.069368
v 0.243091 0.059795 -3.036725
v 0.280970 0.059795 -2.999159
v 0.312777 0.059795 -2.956984
v 0.338149 0.059795 -2.910512
v 0.356721 0.059795 -2.860056
v 0.368131 0.059795 -2.805928
v 0.372016 0.059795 -2.748440
v 0.369190 0.059795 -2.696997
v 0.360547 0.059795 -2.646269
v 0.345841 0.059795 -2.595567
v 0.324823 0.059795 -2.544202
v 0.297245 0.059795 -2.491482
v 0.262861 0.059795 -2.436718
v 0.221423 0.059795 -2.379220
v 0.172683 0.059795 -2.318297
v 0.116394 0.059795 -2.253259
v 0.052308 0.059795 -2.183417
v -0.019822 0.059795 -2.108079
v -0.100244 0.059795 -2.026557
v 0.481170 0.059795 -2.026557
v 0.481170 0.059795 -1.852180
v -0.481170 0.059795 -1.852180
v -0.481170 0.239795 -1.852180
v -0.481170 0.059795 -1.865305
v -0.481170 0.239795 -1.865305
v -0.438152 0.059795 -1.909188
v -0.438152 0.239795 -1.909188
v -0.393023 0.059795 -1.955272
v -0.393023 0.239795 -1.955272
v -0.346363 0.059795 -2.003178
v -0.346363 0.239795 -2.003178
v -0.298751 0.059795 -2.052530
v -0.298751 0.239795 -2.052530
v -0.250768 0.059795 -2.102949
v -0.250768 0.239795 -2.102949
v -0.202993 0.059795 -2.154059
v -0.202993 0.239795 -2.154059
v -0.156008 0.059795 -2.205481
v -0.156008 0.239795 -2.205481
v -0.110392 0.059795 -2.256838
v -0.110392 0.239795 -2.256838
v -0.066725 0.059795 -2.307752
v -0.066725 0.239795 -2.307752
v -0.025587 0.059795 -2.357846
v -0.025587 0.239795 -2.357846
v 0.012442 0.059795 -2.406742
v 0.012442 0.239795 -2.406742
v 0.046780 0.059795 -2.454062
v 0.046780 0.239795 -2.454062
v 0.063859 0.059795 -2.479071
v 0.063859 0.239795 -2.479071
v 0.079452 0.059795 -2.502726
v 0.079452 0.239795 -2.502726
v 0.093561 0.059795 -2.525313
v 0.093561 0.239795 -2.525313
v 0.106184 0.059795 -2.547119
v 0.106184 0.239795 -2.547119
v 0.117322 0.059795 -2.568429
v 0.117322 0.239795 -2.568429
v 0.126975 0.059795 -2.589532
v 0.126975 0.239795 -2.589532
v 0.135143 0.059795 -2.610713
v 0.135143 0.239795 -2.610713
v 0.141826 0.059795 -2.632258
v 0.141826 0.239795 -2.632258
v 0.147024 0.059795 -2.654455
v 0.147024 0.239795 -2.654455
v 0.150737 0.059795 -2.677589
v 0.150737 0.239795 -2.677589
v 0.152964 0.059795 -2.701947
v 0.152964 0.239795 -2.701947
v 0.153707 0.059795 -2.727815
v 0.153707 0.239795 -2.727815
v 0.151429 0.059795 -2.762079
v 0.151429 0.239795 -2.762079
v 0.144766 0.059795 -2.794422
v 0.144766 0.239795 -2.794422
v 0.133972 0.059795 -2.824642
v 0.133972 0.239795 -2.824642
v 0.119302 0.059795 -2.852539
v 0.119302 0.239795 -2.852539
v 0.101013 0.059795 -2.877909
v 0.101013 0.239795 -2.877909
v 0.079360 0.059795 -2.900551
v 0.079360 0.239795 -2.900551
v 0.054597 0.059795 -2.920264
v 0.054597 0.239795 -2.920264
v 0.026979 0.059795 -2.936845
v 0.026979 0.239795 -2.936845
v -0.003237 0.059795 -2.950093
v -0.003237 0.239795 -2.950093
v -0.035797 0.059795 -2.959805
v -0.035797 0.239795 -2.959805
v -0.070445 0.059795 -2.965781
v -0.070445 0.239795 -2.965781
v -0.106927 0.059795 -2.967818
v -0.106927 0.239795 -2.967818
v -0.134267 0.059795 -2.966930
v -0.134267 0.239795 -2.966930
v -0.161731 0.059795 -2.964154
v -0.161731 0.239795 -2.964154
v -0.189349 0.059795 -2.959321
v -0.189349 0.239795 -2.959321
v -0.217153 0.059795 -2.952262
v -0.217153 0.239795 -2.952262
v -0.245174 0.059795 -2.942806
v -0.245174 0.239795 -2.942806
v -0.273443 0.059795 -2.930786
v -0.273443 0.239795 -2.930786
v -0.301989 0.059795 -2.916031
v -0.301989 0.239795 -2.916031
v -0.330845 0.059795 -2.898372
v -0.330845 0.239795 -2.898372
v -0.360042 0.059795 -2.877641
v -0.360042 0.239795 -2.877641
v -0.389610 0.059795 -2.853667
v -0.389610 0.239795 -2.853667
v -0.419580 0.059795 -2.826282
v -0.419580 0.239795 -2.826282
v -0.449983 0.059795 -2.795316
v -0.449983 0.239795 -2.795316
v -0.449983 0.059795 -3.025943
v -0.449983 0.239795 -3.025943
v -0.419528 0.059795 -3.045672
v -0.419528 0.239795 -3.045672
v -0.389383 0.059795 -3.063617
v -0.389383 0.239795 -3.063617
v -0.359485 0.059795 -3.079792
v -0.359485 0.239795 -3.079792
v -0.329773 0.059795 -3.094208
v -0.329773 0.239795 -3.094208
v -0.300184 0.059795 -3.106879
v -0.300184 0.239795 -3.106879
v -0.270658 0.059795 -3.117819
v -0.270658 0.239795 -3.117819
v -0.241131 0.059795 -3.127040
v -0.241131 0.239795 -3.127040
v -0.211543 0.059795 -3.134556
v -0.211543 0.239795 -3.134556
v -0.181831 0.059795 -3.140378
v -0.181831 0.239795 -3.140378
v -0.151933 0.059795 -3.144521
v -0.151933 0.239795 -3.144521
v -0.121788 0.059795 -3.146997
v -0.121788 0.239795 -3.146997
v -0.091333 0.059795 -3.147820
v -0.091333 0.239795 -3.147820
v -0.024657 0.059795 -3.144473
v -0.024657 0.239795 -3.144473
v 0.038128 0.059795 -3.134642
v 0.038128 0.239795 -3.134642
v 0.096659 0.059795 -3.118640
v 0.096659 0.239795 -3.118640
v 0.150572 0.059795 -3.096777
v 0.150572 0.239795 -3.096777
v 0.199504 0.059795 -3.069368
v 0.199504 0.239795 -3.069368
v 0.243091 0.059795 -3.036725
v 0.243091 0.239795 -3.036725
v 0.280970 0.059795 -2.999159
v 0.280970 0.239795 -2.999159
v 0.312777 0.059795 -2.956984
v 0.312777 0.239795 -2.956984
v 0.338149 0.059795 -2.910512
v 0.338149 0.239795 -2.910512
v 0.356721 0.059795 -2.860056
v 0.356721 0.239795 -2.860056
v 0.368131 0.059795 -2.805928
v 0.368131 0.239795 -2.805928
v 0.372016 0.059795 -2.748440
v 0.372016 0.239795 -2.748440
v 0.369190 0.059795 -2.696997
v 0.369190 0.239795 -2.696997
v 0.360547 0.059795 -2.646269
v 0.360547 0.239795 -2.646269
v 0.345841 0.059795 -2.595567
v 0.345841 0.239795 -2.595567
v 0.324823 0.059795 -2.544202
v 0.324823 0.239795 -2.544202
v 0.297245 0.059795 -2.491482
v 0.297245 0.239795 -2.491482
v 0.262861 0.059795 -2.436718
v 0.262861 0.239795 -2.436718
v 0.221423 0.059795 -2.379220
v 0.221423 0.239795 -2.379220
v 0.172683 0.059795 -2.318297
v 0.172683 0.239795 -2.318297
v 0.116394 0.059795 -2.253259
v 0.116394 0.239795 -2.253259
v 0.052308 0.059795 -2.183417
v 0.052308 0.239795 -2.183417
v -0.019822 0.059795 -2.108079
v -0.019822 0.239795 -2.108079
v -0.100244 0.059795 -2.026557
v -0.100244 0.239795 -2.026557
v 0.481170 0.059795 -2.026557
v 0.481170 0.239795 -2.026557
v 0.481170 0.059795 -1.852180
v 0.481170 0.239795 -1.852180
vn -0.0000 1.0000 -0.0000
vn -0.0000 -1.0000 -0.0000
vn -0.6440 -0.0000 0.7651
vn -0.9197 -0.0000 -0.3926
vn -0.7143 -0.0000 -0.6999
vn -0.7154 -0.0000 -0.6987
vn -0.7180 -0.0000 -0.6960
vn -0.7220 -0.0000 -0.6919
vn -0.7275 -0.0000 -0.6861
vn -0.7344 -0.0000 -0.6787
vn -0.7430 -0.0000 -0.6693
vn -0.7534 -0.0000 -0.6576
vn -0.7660 -0.0000 -0.6429
vn -0.7811 -0.0000 -0.6244
vn -0.7994 -0.0000 -0.6007
vn -0.8176 -0.0000 -0.5757
vn -0.8304 -0.0000 -0.5572
vn -0.8416 -0.0000 -0.5401
vn -0.8569 -0.0000 -0.5155
vn -0.8760 -0.0000 -0.4823
vn -0.8981 -0.0000 -0.4398
vn -0.9216 -0.0000 -0.3882
vn -0.9446 -0.0000 -0.3283
vn -0.9650 -0.0000 -0.2624
vn -0.9811 -0.0000 -0.1934
vn -0.9922 -0.0000 -0.1249
vn -0.9982 -0.0000 -0.0599
vn -0.9998 -0.0000 0.0189
vn -0.9909 -0.0000 0.1346
vn -0.9628 -0.0000 0.2701
vn -0.9155 -0.0000 0.4024
vn -0.8499 -0.0000 0.5270
vn -0.7683 -0.0000 0.6401
vn -0.6737 -0.0000 0.7390
vn -0.5694 -0.0000 0.8221
vn -0.4585 -0.0000 0.8887
vn -0.3439 -0.0000 0.9390
vn -0.2280 -0.0000 0.9737
vn -0.1129 -0.0000 0.9936
vn -0.0116 -0.0000 0.9999
vn 0.0665 -0.0000 0.9978
vn 0.1365 -0.0000 0.9906
vn 0.2093 -0.0000 0.9779
vn 0.2830 -0.0000 0.9591
vn 0.3556 -0.0000 0.9346
vn 0.4254 -0.0000 0.9050
vn 0.4907 -0.0000 0.8713
vn 0.5506 -0.0000 0.8348
vn 0.6045 -0.0000 0.7966
vn 0.6523 -0.0000 0.7579
vn 0.6942 -0.0000 0.7198
vn -0.2898 -0.0000 0.9571
vn -0.8632 -0.0000 -0.5048
vn -0.5276 -0.0000 -0.8495
vn -0.4937 -0.0000 -0.8696
vn -0.4562 -0.0000 -0.8899
vn -0.4151 -0.0000 -0.9098
vn -0.3706 -0.0000 -0.9288
vn -0.3228 -0.0000 -0.9465
vn -0.2722 -0.0000 -0.9623
vn -0.2193 -0.0000 -0.9757
vn -0.1648 -0.0000 -0.9863
vn -0.1096 -0.0000 -0.9940
vn -0.0544 -0.0000 -0.9985
vn 0.0116 -0.0000 -0.9999
vn 0.1024 -0.0000 -0.9947
vn 0.2093 -0.0000 -0.9779
vn 0.3199 -0.0000 -0.9474
vn 0.4326 -0.0000 -0.9016
vn 0.5447 -0.0000 -0.8387
vn 0.6527 -0.0000 -0.7576
vn 0.7527 -0.0000 -0.6584
vn 0.8399 -0.0000 -0.5428
vn 0.9103 -0.0000 -0.4140
vn 0.9609 -0.0000 -0.2770
vn 0.9905 -0.0000 -0.1374
vn 1.0000 -0.0000 -0.0063
vn 0.9937 -0.0000 0.1117
vn 0.9746 -0.0000 0.2238
vn 0.9442 -0.0000 0.3294
vn 0.9067 -0.0000 0.4218
vn 0.8671 -0.0000 0.4982
vn 0.8294 -0.0000 0.5586
vn 0.7963 -0.0000 0.6050
vn 0.7686 -0.0000 0.6397
vn 0.7465 -0.0000 0.6654
vn 0.7296 -0.0000 0.6839
vn 0.7171 -0.0000 0.6970
vn 0.8733 -0.0000 -0.4871
vn 0.6440 -0.0000 -0.7651
vn 0.6440 -0.0000 0.7651
vt 0.693182 0.000000
vt 0.715909 0.000000
vt 0.704545 0.000000
vt 0.681818 0.000000
vt 0.670455 0.000000
vt 0.727273 0.000000
vt 0.659091 0.000000
vt 0.738636 0.000000
vt 0.647727 0.000000
vt 0.636364 0.000000
vt 0.750000 0.000000
vt 0.625000 0.000000
vt 0.613636 0.000000
vt 0.761364 0.000000
vt 0.602273 0.000000
vt 0.590909 0.000000
vt 0.772727 0.000000
vt 0.579545 0.000000
vt 0.568182 0.000000
vt 0.784091 0.000000
vt 0.556818 0.000000
vt 0.545455 0.000000
vt 0.534091 0.000000
vt 0.522727 0.000000
vt 0.511364 0.000000
vt 0.500000 0.000000
vt 0.488636 0.000000
vt 0.477273 0.000000
vt 0.465909 0.000000
vt 0.454545 0.000000
vt 0.443182 0.000000
vt 0.431818 0.000000
vt 0.420455 0.000000
vt 0.795455 0.000000
vt 0.409091 0.000000
vt 0.397727 0.000000
vt 0.386364 0.000000
vt 0.806818 0.000000
vt 0.375000 0.000000
vt 0.363636 0.000000
vt 0.352273 0.000000
vt 0.818182 0.000000
vt 0.340909 0.000000
vt 0.329545 0.000000
vt 0.829545 0.000000
vt 0.318182 0.000000
vt 0.306818 0.000000
vt 0.840909 0.000000
vt 0.295455 0.000000
vt 0.284091 0.000000
vt 0.852273 0.000000
vt 0.272727 0.000000
vt 0.261364 0.000000
vt 0.863636 0.000000
vt 0.250000 0.000000
vt 0.238636 0.000000
vt 0.875000 0.000000
vt 0.227273 0.000000
vt 0.215909 0.000000
vt 0.886364 0.000000
vt 0.204545 0.000000
vt 0.193182 0.000000
vt 0.181818 0.000000
vt 0.897727 0.000000
vt 0.170455 0.000000
vt 0.159091 0.000000
vt 0.909091 0.000000
vt 0.147727 0.000000
vt 0.136364 0.000000
vt 0.920455 0.000000
vt 0.125000 0.000000
vt 0.931818 0.000000
vt 0.113636 0.000000
vt 0.943182 0.000000
vt 0.102273 0.000000
vt 0.090909 0.000000
vt 0.954545 0.000000
vt 0.079545 0.000000
vt 0.965909 0.000000
vt 0.068182 0.000000
vt 0.977273 0.000000
vt 0.056818 0.000000
vt 0.045455 0.000000
vt 0.988636 0.000000
vt 1.000000 0.000000
vt 0.034091 0.000000
vt 0.022727 0.000000
vt 0.011364 0.000000
vt 0.000000 0.000000
vt 0.000000 1.000000
vt 0.011236 1.000000
vt 0.011236 0.000000
vt 0.022472 1.000000
vt 0.022472 0.000000
vt 0.033708 1.000000
vt 0.033708 0.000000
vt 0.044944 1.000000
vt 0.044944 0.000000
vt 0.056180 1.000000
vt 0.056180 0.000000
vt 0.067416 1.000000
vt 0.067416 0.000000
vt 0.078652 1.000000
vt 0.078652 0.000000
vt 0.089888 1.000000
vt 0.089888 0.000000
vt 0.101124 1.000000
vt 0.101124 0.000000
vt 0.112360 1.000000
vt 0.112360 0.000000
vt 0.123596 1.000000
vt 0.123596 0.000000
vt 0.134831 1.000000
vt 0.134831 0.000000
vt 0.146067 1.000000
vt 0.146067 0.000000
vt 0.157303 1.000000
vt 0.157303 0.000000
vt 0.168539 1.000000
vt 0.168539 0.000000
vt 0.179775 1.000000
vt 0.179775 0.000000
vt 0.191011 1.000000
vt 0.191011 0.000000
vt 0.202247 1.000000
vt 0.202247 0.000000
vt 0.213483 1.000000
vt 0.213483 0.000000
vt 0.224719 1.000000
vt 0.224719 0.000000
vt 0.235955 1.000000
vt 0.235955 0.000000
vt 0.247191 1.000000
vt 0.247191 0.000000
vt 0.258427 1.000000
vt 0.258427 0.000000
vt 0.269663 1.000000
vt 0.269663 0.000000
vt 0.280899 1.000000
vt 0.280899 0.000000
vt 0.292135 1.000000
vt 0.292135 0.000000
vt 0.303371 1.000000
vt 0.303371 0.000000
vt 0.314607 1.000000
vt 0.314607 0.000000
vt 0.325843 1.000000
vt 0.325843 0.000000
vt 0.337079 1.000000
vt 0.337079 0.000000
vt 0.348315 1.000000
vt 0.348315 0.000000
vt 0.359551 1.000000
vt 0.359551 0.000000
vt 0.370787 1.000000
vt 0.370787 0.000000
vt 0.382022 1.000000
vt 0.382022 0.000000
vt 0.393258 1.000000
vt 0.393258 0.000000
vt 0.404494 1.000000
vt 0.404494 0.000000
vt 0.415730 1.000000
vt 0.415730 0.000000
vt 0.426966 1.000000
vt 0.426966 0.000000
vt 0.438202 1.000000
vt 0.438202 0.000000
vt 0.449438 1.000000
vt 0.449438 0.000000
vt 0.460674 1.000000
vt 0.460674 0.000000
vt 0.471910 1.000000
vt 0.471910 0.000000
vt 0.483146 1.000000
vt 0.483146 0.000000
vt 0.494382 1.000000
vt 0.494382 0.000000
vt 0.505618 1.000000
vt 0.505618 0.000000
vt 0.516854 1.000000
vt 0.516854 0.000000
vt 0.528090 1.000000
vt 0.528090 0.000000
vt 0.539326 1.000000
vt 0.539326 0.000000
vt 0.550562 1.000000
vt 0.550562 0.000000
vt 0.561798 1.000000
vt 0.561798 0.000000
vt 0.573034 1.000000
vt 0.573034 0.000000
vt 0.584270 1.000000
vt 0.584270 0.000000
vt 0.595506 1.000000
vt 0.595506 0.000000
vt 0.606742 1.000000
vt 0.606742 0.000000
vt 0.617977 1.000000
vt 0.617977 0.000000
vt 0.629214 1.000000
vt 0.629214 0.000000
vt 0.640449 1.000000
vt 0.640449 0.000000
vt 0.651685 1.000000
vt 0.651685 0.000000
vt 0.662921 1.000000
vt 0.662921 0.000000
vt 0.674157 1.000000
vt 0.674157 0.000000
vt 0.685393 1.000000
vt 0.685393 0.000000
vt 0.696629 1.000000
vt 0.696629 0.000000
vt 0.707865 1.000000
vt 0.707865 0.000000
vt 0.719101 1.000000
vt 0.719101 0.000000
vt 0.730337 1.000000
vt 0.730337 0.000000
vt 0.741573 1.000000
vt 0.741573 0.000000
vt 0.752809 1.000000
vt 0.752809 0.000000
vt 0.764045 1.000000
vt 0.764045 0.000000
vt 0.775281 1.000000
vt 0.775281 0.000000
vt 0.786517 1.000000
vt 0.786517 0.000000
vt 0.797753 1.000000
vt 0.797753 0.000000
vt 0.808989 1.000000
vt 0.808989 0.000000
vt 0.820225 1.000000
vt 0.820225 0.000000
vt 0.831461 1.000000
vt 0.831461 0.000000
vt 0.842697 1.000000
vt 0.842697 0.000000
vt 0.853933 1.000000
vt 0.853933 0.000000
vt 0.865169 1.000000
vt 0.865169 0.000000
vt 0.876405 1.000000
vt 0.876405 0.000000
vt 0.887640 1.000000
vt 0.887640 0.000000
vt 0.898876 1.000000
vt 0.898876 0.000000
vt 0.910112 1.000000
vt 0.910112 0.000000
vt 0.921348 1.000000
vt 0.921348 0.000000
vt 0.932584 1.000000
vt 0.932584 0.000000
vt 0.943820 1.000000
vt 0.943820 0.000000
vt 0.955056 1.000000
vt 0.955056 0.000000
vt 0.966292 1.000000
vt 0.966292 0.000000
vt 0.977528 1.000000
vt 0.977528 0.000000
vt 0.988764 1.000000
vt 0.988764 0.000000
vt 1.000000 1.000000
s 0
usemtl Material.001
f 190/173/67 192/174/67 191/175/67
f 189/176/67 192/174/67 190/173/67
f 188/177/67 192/174/67 189/176/67
f 188/177/67 193/178/67 192/174/67
f 187/179/67 193/178/67 188/177/67
f 187/179/67 194/180/67 193/178/67
f 186/181/67 194/180/67 187/179/67
f 185/182/67 194/180/67 186/181/67
f 185/182/67 195/183/67 194/180/67
f 184/184/67 195/183/67 185/182/67
f 183/185/67 195/183/67 184/184/67
f 183/185/67 196/186/67 195/183/67
f 182/187/67 196/186/67 183/185/67
f 181/188/67 196/186/67 182/187/67
f 181/188/67 197/189/67 196/186/67
f 180/190/67 197/189/67 181/188/67
f 179/191/67 197/189/67 180/190/67
f 179/191/67 198/192/67 197/189/67
f 178/193/67 177/194/67 179/191/67
f 177/194/67 176/195/67 179/191/67
f 176/195/67 175/196/67 179/191/67
f 175/196/67 174/197/67 179/191/67
f 174/197/67 173/198/67 179/191/67
f 173/198/67 172/199/67 179/191/67
f 172/199/67 171/200/67 179/191/67
f 171/200/67 170/201/67 179/191/67
f 170/201/67 169/202/67 179/191/67
f 169/202/67 168/203/67 179/191/67
f 168/203/67 167/204/67 179/191/67
f 167/204/67 198/192/67 179/191/67
f 167/204/67 166/205/67 198/192/67
f 166/205/67 199/206/67 198/192/67
f 165/207/67 199/206/67 166/205/67
f 164/208/67 199/206/67 165/207/67
f 163/209/67 199/206/67 164/208/67
f 163/209/67 200/210/67 199/206/67
f 162/211/67 200/210/67 163/209/67
f 161/212/67 200/210/67 162/211/67
f 160/213/67 200/210/67 161/212/67
f 160/213/67 201/214/67 200/210/67
f 159/215/67 201/214/67 160/213/67
f 158/216/67 201/214/67 159/215/67
f 158/216/67 202/217/67 201/214/67
f 157/218/67 202/217/67 158/216/67
f 156/219/67 202/217/67 157/218/67
f 156/219/67 203/220/67 202/217/67
f 155/221/67 203/220/67 156/219/67
f 154/222/67 203/220/67 155/221/67
f 154/222/67 204/223/67 203/220/67
f 153/224/67 204/223/67 154/222/67
f 152/225/67 204/223/67 153/224/67
f 152/225/67 205/226/67 204/223/67
f 151/227/67 205/226/67 152/225/67
f 150/228/67 205/226/67 151/227/67
f 150/228/67 206/229/67 205/226/67
f 149/230/67 206/229/67 150/228/67
f 148/231/67 206/229/67 149/230/67
f 148/231/67 207/232/67 206/229/67
f 147/233/67 207/232/67 148/231/67
f 146/234/67 207/232/67 147/233/67
f 145/235/67 207/232/67 146/234/67
f 145/235/67 208/236/67 207/232/67
f 144/237/67 208/236/67 145/235/67
f 143/238/67 208/236/67 144/237/67
f 143/238/67 209/239/67 208/236/67
f 142/240/67 209/239/67 143/238/67
f 141/241/67 209/239/67 142/240/67
f 141/241/67 210/242/67 209/239/67
f 140/243/67 210/242/67 141/241/67
f 140/243/67 211/244/67 210/242/67
f 139/245/67 211/244/67 140/243/67
f 139/245/67 212/246/67 211/244/67
f 138/247/67 212/246/67 139/245/67
f 137/248/67 212/246/67 138/247/67
f 137/248/67 213/249/67 212/246/67
f 136/250/67 213/249/67 137/248/67
f 136/250/67 214/251/67 213/249/67
f 135/252/67 214/251/67 136/250/67
f 135/252/67 215/253/67 214/251/67
f 134/254/67 215/253/67 135/252/67
f 133/255/67 215/253/67 134/254/67
f 133/255/67 216/256/67 215/253/67
f 133/255/67 217/257/67 216/256/67
f 132/258/67 217/257/67 133/255/67
f 131/259/67 217/257/67 132/258/67
f 130/260/67 217/257/67 131/259/67
f 129/261/67 217/257/67 130/260/67
f 279/173/68 280/175/68 281/174/68
f 278/176/68 279/173/68 281/174/68
f 277/177/68 278/176/68 281/174/68
f 277/177/68 281/174/68 282/178/68
f 276/179/68 277/177/68 282/178/68
f 276/179/68 282/178/68 283/180/68
f 275/181/68 276/179/68 283/180/68
f 274/182/68 275/181/68 283/180/68
f 274/182/68 283/180/68 284/183/68
f 273/184/68 274/182/68 284/183/68
f 272/185/68 273/184/68 284/183/68
f 272/185/68 284/183/68 285/186/68
f 271/187/68 272/185/68 285/186/68
f 270/188/68 271/187/68 285/186/68
f 270/188/68 285/186/68 286/189/68
f 269/190/68 270/188/68 286/189/68
f 268/191/68 269/190/68 286/189/68
f 268/191/68 286/189/68 287/192/68
f 267/193/68 268/191/68 266/194/68
f 266/194/68 268/191/68 265/195/68
f 265/195/68 268/191/68 264/196/68
f 264/196/68 268/191/68 263/197/68
f 263/197/68 268/191/68 262/198/68
f 262/198/68 268/191/68 261/199/68
f 261/199/68 268/191/68 260/200/68
f 260/200/68 268/191/68 259/201/68
f 259/201/68 268/191/68 258/202/68
f 258/202/68 268/191/68 257/203/68
f 257/203/68 268/191/68 256/204/68
f 256/204/68 268/191/68 287/192/68
f 256/204/68 287/192/68 255/205/68
f 255/205/68 287/192/68 288/206/68
f 254/207/68 255/205/68 288/206/68
f 253/208/68 254/207/68 288/206/68
f 252/209/68 253/208/68 288/206/68
f 252/209/68 288/206/68 289/210/68
f 251/211/68 252/209/68 289/210/68
f 250/212/68 251/211/68 289/210/68
f 249/213/68 250/212/68 289/210/68
f 249/213/68 289/210/68 290/214/68
f 248/215/68 249/213/68 290/214/68
f 247/216/68 248/215/68 290/214/68
f 247/216/68 290/214/68 291/217/68
f 246/218/68 247/216/68 291/217/68
f 245/219/68 246/218/68 291/217/68
f 245/219/68 291/217/68 292/220/68
f 244/221/68 245/219/68 292/220/68
f 243/222/68 244/221/68 292/220/68
f 243/222/68 292/220/68 293/223/68
f 242/224/68 243/222/68 293/223/68
f 241/225/68 242/224/68 293/223/68
f 241/225/68 293/223/68 294/226/68
f 240/227/68 241/225/68 294/226/68
f 239/228/68 240/227/68 294/226/68
f 239/228/68 294/226/68 295/229/68
f 238/230/68 239/228/68 295/229/68
f 237/231/68 238/230/68 295/229/68
f 237/231/68 295/229/68 296/232/68
f 236/233/68 237/231/68 296/232/68
f 235/234/68 236/233/68 296/232/68
f 234/235/68 235/234/68 296/232/68
f 234/235/68 296/232/68 297/236/68
f 233/237/68 234/235/68 297/236/68
f 232/238/68 233/237/68 297/236/68
f 232/238/68 297/236/68 298/239/68
f 231/240/68 232/238/68 298/239/68
f 230/241/68 231/240/68 298/239/68
f 230/241/68 298/239/68 299/242/68
f 229/243/68 230/241/68 299/242/68
f 229/243/68 299/242/68 300/244/68
f 228/245/68 229/243/68 300/244/68
f 228/245/68 300/244/68 301/246/68
f 227/247/68 228/245/68 301/246/68
f 226/248/68 227/247/68 301/246/68
f 226/248/68 301/246/68 302/249/68
f 225/250/68 226/248/68 302/249/68
f 225/250/68 302/249/68 303/251/68
f 224/252/68 225/250/68 303/251/68
f 224/252/68 303/251/68 304/253/68
f 223/254/68 224/252/68 304/253/68
f 222/255/68 223/254/68 304/253/68
f 222/255/68 304/253/68 305/256/68
f 222/255/68 305/256/68 306/257/68
f 221/258/68 222/255/68 306/257/68
f 220/259/68 221/258/68 306/257/68
f 219/260/68 220/259/68 306/257/68
f 218/261/68 219/260/68 306/257/68
s 1
f 308/262/69 310/263/70 309/264/70 307/261/69
f 310/263/70 312/265/71 311/266/71 309/264/70
f 312/265/71 314/267/72 313/268/72 311/266/71
f 314/267/72 316/269/73 315/270/73 313/268/72
f 316/269/73 318/271/74 317/272/74 315/270/73
f 318/271/74 320/273/75 319/274/75 317/272/74
f 320/273/75 322/275/76 321/276/76 319/274/75
f 322/275/76 324/277/77 323/278/77 321/276/76
f 324/277/77 326/279/78 325/280/78 323/278/77
f 326/279/78 328/281/79 327/282/79 325/280/78
f 328/281/79 330/283/80 329/284/80 327/282/79
f 330/283/80 332/285/81 331/286/81 329/284/80
f 332/285/81 334/287/82 333/288/82 331/286/81
f 334/287/82 336/289/83 335/290/83 333/288/82
f 336/289/83 338/291/84 337/292/84 335/290/83
f 338/291/84 340/293/85 339/294/85 337/292/84
f 340/293/85 342/295/86 341/296/86 339/294/85
f 342/295/86 344/297/87 343/298/87 341/296/86
f 344/297/87 346/299/88 345/300/88 343/298/87
f 346/299/88 348/301/89 347/302/89 345/300/88
f 348/301/89 350/303/90 349/304/90 347/302/89
f 350/303/90 352/305/91 351/306/91 349/304/90
f 352/305/91 354/307/92 353/308/92 351/306/91
f 354/307/92 356/309/93 355/310/93 353/308/92
f 356/309/93 358/311/94 357/312/94 355/310/93
f 358/311/94 360/313/95 359/314/95 357/312/94
f 360/313/95 362/315/96 361/316/96 359/314/95
f 362/315/96 364/317/97 363/318/97 361/316/96
f 364/317/97 366/319/98 365/320/98 363/318/97
f 366/319/98 368/321/99 367/322/99 365/320/98
f 368/321/99 370/323/100 369/324/100 367/322/99
f 370/323/100 372/325/101 371/326/101 369/324/100
f 372/325/101 374/327/102 373/328/102 371/326/101
f 374/327/102 376/329/103 375/330/103 373/328/102
f 376/329/103 378/331/104 377/332/104 375/330/103
f 378/331/104 380/333/105 379/334/105 377/332/104
f 380/333/105 382/335/106 381/336/106 379/334/105
f 382/335/106 384/337/107 383/338/107 381/336/106
f 384/337/107 386/339/108 385/340/108 383/338/107
f 386/339/108 388/341/109 387/342/109 385/340/108
f 388/341/109 390/343/110 389/344/110 387/342/109
f 390/343/110 392/345/111 391/346/111 389/344/110
f 392/345/111 394/347/112 393/348/112 391/346/111
f 394/347/112 396/349/113 395/350/113 393/348/112
f 396/349/113 398/351/114 397/352/114 395/350/113
f 398/351/114 400/353/115 399/354/115 397/352/114
f 400/353/115 402/355/116 401/356/116 399/354/115
f 402/355/116 404/357/117 403/358/117 401/356/116
f 404/357/117 406/359/118 405/360/118 403/358/117
f 406/359/118 408/361/119 407/362/119 405/360/118
f 408/361/119 410/363/120 409/364/120 407/362/119
f 410/363/120 412/365/121 411/366/121 409/364/120
f 412/365/121 414/367/122 413/368/122 411/366/121
f 414/367/122 416/369/123 415/370/123 413/368/122
f 416/369/123 418/371/124 417/372/124 415/370/123
f 418/371/124 420/373/125 419/374/125 417/372/124
f 420/373/125 422/375/126 421/376/126 419/374/125
f 422/375/126 424/377/127 423/378/127 421/376/126
f 424/377/127 426/379/128 425/380/128 423/378/127
f 426/379/128 428/381/129 427/382/129 425/380/128
f 428/381/129 430/383/130 429/384/130 427/382/129
f 430/383/130 432/385/131 431/386/131 429/384/130
f 432/385/131 434/387/132 433/388/132 431/386/131
f 434/387/132 436/389/133 435/390/133 433/388/132
f 436/389/133 438/391/134 437/392/134 435/390/133
f 438/391/134 440/393/135 439/394/135 437/392/134
f 440/393/135 442/395/136 441/396/136 439/394/135
f 442/395/136 444/397/137 443/398/137 441/396/136
f 444/397/137 446/399/138 445/400/138 443/398/137
f 446/399/138 448/401/139 447/402/139 445/400/138
f 448/401/139 450/403/140 449/404/140 447/402/139
f 450/403/140 452/405/141 451/406/141 449/404/140
f 452/405/141 454/407/142 453/408/142 451/406/141
f 454/407/142 456/409/143 455/410/143 453/408/142
f 456/409/143 458/411/144 457/412/144 455/410/143
f 458/411/144 460/413/145 459/414/145 457/412/144
f 460/413/145 462/415/146 461/416/146 459/414/145
f 462/415/146 464/417/147 463/418/147 461/416/146
f 464/417/147 466/419/148 465/420/148 463/418/147
f 466/419/148 468/421/149 467/422/149 465/420/148
f 468/421/149 470/423/150 469/424/150 467/422/149
f 470/423/150 472/425/151 471/426/151 469/424/150
f 472/425/151 474/427/152 473/428/152 471/426/151
f 474/427/152 476/429/153 475/430/153 473/428/152
f 476/429/153 478/431/154 477/432/154 475/430/153
f 478/431/154 480/433/155 479/434/155 477/432/154
f 480/433/155 482/435/156 481/436/156 479/434/155
f 482/435/156 484/437/157 483/438/157 481/436/156
f 484/437/157 308/439/69 307/257/69 483/438/157
