# Blender 4.4.3
# www.blender.org
mtllib button_bat.mtl
g Cylinder_Cylinder
v 0.000000 -0.107616 -1.000000
v 0.195090 -0.107616 -0.980785
v 0.382683 -0.107616 -0.923880
v 0.555570 -0.107616 -0.831470
v 0.707107 -0.107616 -0.707107
v 0.831470 -0.107616 -0.555570
v 0.923880 -0.107616 -0.382683
v 0.980785 -0.107616 -0.195090
v 1.000000 -0.107616 0.000000
v 0.980785 -0.107616 0.195090
v 0.923880 -0.107616 0.382683
v 0.831470 -0.107616 0.555570
v 0.707107 -0.107616 0.707107
v 0.555570 -0.107616 0.831470
v 0.382683 -0.107616 0.923880
v 0.195090 -0.107616 0.980785
v 0.000000 -0.107616 1.000000
v -0.195090 -0.107616 0.980785
v -0.382683 -0.107616 0.923880
v -0.555570 -0.107616 0.831470
v -0.707107 -0.107616 0.707107
v -0.831470 -0.107616 0.555570
v -0.923880 -0.107616 0.382683
v -0.980785 -0.107616 0.195090
v -1.000000 -0.107616 0.000000
v -0.980785 -0.107616 -0.195090
v -0.923880 -0.107616 -0.382683
v -0.831470 -0.107616 -0.555570
v -0.707107 -0.107616 -0.707107
v -0.555570 -0.107616 -0.831470
v -0.382683 -0.107616 -0.923880
v -0.195090 -0.107616 -0.980785
v 0.000000 0.107616 -0.941481
v 0.000000 0.101349 -1.000000
v 0.183674 0.107616 -0.923391
v 0.195090 0.101349 -0.980785
v 0.360289 0.107616 -0.869815
v 0.382683 0.101349 -0.923880
v 0.523059 0.107616 -0.782813
v 0.555570 0.101349 -0.831470
v 0.665728 0.107616 -0.665728
v 0.707107 0.101349 -0.707107
v 0.782813 0.107616 -0.523059
v 0.831470 0.101349 -0.555570
v 0.869815 0.107616 -0.360289
v 0.923880 0.101349 -0.382683
v 0.923391 0.107616 -0.183674
v 0.980785 0.101349 -0.195090
v 0.941481 0.107616 0.000000
v 1.000000 0.101349 0.000000
v 0.923391 0.107616 0.183674
v 0.980785 0.101349 0.195090
v 0.869815 0.107616 0.360289
v 0.923880 0.101349 0.382683
v 0.782813 0.107616 0.523059
v 0.831470 0.101349 0.555570
v 0.665728 0.107616 0.665728
v 0.707107 0.101349 0.707107
v 0.523059 0.107616 0.782813
v 0.555570 0.101349 0.831470
v 0.360289 0.107616 0.869815
v 0.382683 0.101349 0.923880
v 0.183674 0.107616 0.923391
v 0.195090 0.101349 0.980785
v 0.000000 0.107616 0.941481
v 0.000000 0.101349 1.000000
v -0.183674 0.107616 0.923391
v -0.195090 0.101349 0.980785
v -0.360289 0.107616 0.869815
v -0.382683 0.101349 0.923880
v -0.523059 0.107616 0.782813
v -0.555570 0.101349 0.831470
v -0.665728 0.107616 0.665728
v -0.707107 0.101349 0.707107
v -0.782813 0.107616 0.523059
v -0.831470 0.101349 0.555570
v -0.869815 0.107616 0.360289
v -0.923880 0.101349 0.382683
v -0.923391 0.107616 0.183674
v -0.980785 0.101349 0.195090
v -0.941481 0.107616 0.000000
v -1.000000 0.101349 0.000000
v -0.923391 0.107616 -0.183674
v -0.980785 0.101349 -0.195090
v -0.869815 0.107616 -0.360289
v -0.923880 0.101349 -0.382683
v -0.782813 0.107616 -0.523059
v -0.831470 0.101349 -0.555570
v -0.665728 0.107616 -0.665728
v -0.707107 0.101349 -0.707107
v -0.523059 0.107616 -0.782813
v -0.555570 0.101349 -0.831470
v -0.360289 0.107616 -0.869815
v -0.382683 0.101349 -0.923880
v -0.183674 0.107616 -0.923391
v -0.195090 0.101349 -0.980785
v 0.000000 0.159801 -0.941481
v 0.183674 0.159801 -0.923391
v 0.360289 0.159801 -0.869815
v 0.523059 0.159801 -0.782813
v 0.665728 0.159801 -0.665728
v 0.782813 0.159801 -0.523059
v 0.869815 0.159801 -0.360289
v 0.923391 0.159801 -0.183674
v 0.941481 0.159801 0.000000
v 0.923391 0.159801 0.183674
v 0.869815 0.159801 0.360289
v 0.782813 0.159801 0.523059
v 0.665728 0.159801 0.665728
v 0.523059 0.159801 0.782813
v 0.360289 0.159801 0.869815
v 0.183674 0.159801 0.923391
v 0.000000 0.159801 0.941481
v -0.183674 0.159801 0.923391
v -0.360289 0.159801 0.869815
v -0.523059 0.159801 0.782813
v -0.665728 0.159801 0.665728
v -0.782813 0.159801 0.523059
v -0.869815 0.159801 0.360289
v -0.923391 0.159801 0.183674
v -0.941481 0.159801 0.000000
v -0.923391 0.159801 -0.183674
v -0.869815 0.159801 -0.360289
v -0.782813 0.159801 -0.523059
v -0.665728 0.159801 -0.665728
v -0.523059 0.159801 -0.782813
v -0.360289 0.159801 -0.869815
v -0.183674 0.159801 -0.923391
vn -0.0980 -0.0000 -0.9952
vn 0.4714 -0.0000 -0.8819
vn 0.6344 -0.0000 -0.7730
vn 0.7730 -0.0000 -0.6344
vn 0.8819 -0.0000 -0.4714
vn 0.9569 -0.0000 -0.2903
vn 0.9952 -0.0000 -0.0980
vn 0.9952 -0.0000 0.0980
vn 0.9569 -0.0000 0.2903
vn 0.8819 -0.0000 0.4714
vn 0.7730 -0.0000 0.6344
vn 0.6344 -0.0000 0.7730
vn 0.4714 -0.0000 0.8819
vn 0.2903 -0.0000 0.9569
vn 0.0980 -0.0000 0.9952
vn -0.0980 -0.0000 0.9952
vn -0.2903 -0.0000 0.9569
vn -0.4714 -0.0000 0.8819
vn -0.6344 -0.0000 0.7730
vn -0.7730 -0.0000 0.6344
vn -0.8819 -0.0000 0.4714
vn -0.9569 -0.0000 0.2903
vn -0.9952 -0.0000 0.0980
vn -0.9952 -0.0000 -0.0980
vn -0.9569 -0.0000 -0.2903
vn -0.8819 -0.0000 -0.4714
vn -0.7730 -0.0000 -0.6344
vn -0.6344 -0.0000 -0.7730
vn -0.4714 -0.0000 -0.8819
vn -0.2903 -0.0000 -0.9569
vn 0.0980 -0.0000 -0.9952
vn 0.2903 -0.0000 -0.9569
vn -0.0000 -1.0000 -0.0000
vn 0.0105 0.9943 -0.1065
vn 0.0311 0.9943 -0.1024
vn 0.0504 0.9943 -0.0944
vn 0.0679 0.9943 -0.0827
vn 0.0827 0.9943 -0.0679
vn 0.0944 0.9943 -0.0504
vn 0.1024 0.9943 -0.0311
vn 0.1065 0.9943 -0.0105
vn 0.1065 0.9943 0.0105
vn 0.1024 0.9943 0.0311
vn 0.0944 0.9943 0.0504
vn 0.0827 0.9943 0.0679
vn 0.0679 0.9943 0.0827
vn 0.0504 0.9943 0.0944
vn 0.0311 0.9943 0.1024
vn 0.0105 0.9943 0.1065
vn -0.0105 0.9943 0.1065
vn -0.0311 0.9943 0.1024
vn -0.0504 0.9943 0.0944
vn -0.0679 0.9943 0.0827
vn -0.0827 0.9943 0.0679
vn -0.0944 0.9943 0.0504
vn -0.1024 0.9943 0.0311
vn -0.1065 0.9943 0.0105
vn -0.1065 0.9943 -0.0105
vn -0.1024 0.9943 -0.0311
vn -0.0944 0.9943 -0.0504
vn -0.0827 0.9943 -0.0679
vn -0.0679 0.9943 -0.0827
vn -0.0504 0.9943 -0.0944
vn -0.0311 0.9943 -0.1024
vn -0.0105 0.9943 -0.1065
vn -0.0000 1.0000 -0.0000
vt 0.031250 0.500000
vt 0.031250 0.985441
vt 0.000000 0.985441
vt 0.000000 0.500000
vt 0.937500 0.500000
vt 0.937500 0.985441
vt 0.906250 0.985441
vt 0.906250 0.500000
vt 0.875000 0.985441
vt 0.875000 0.500000
vt 0.875000 0.985441
vt 0.843750 0.985441
vt 0.843750 0.500000
vt 0.843750 0.985441
vt 0.812500 0.985441
vt 0.812500 0.500000
vt 0.781250 0.985441
vt 0.781250 0.500000
vt 0.750000 0.985441
vt 0.750000 0.500000
vt 0.718750 0.985441
vt 0.718750 0.500000
vt 0.718750 0.985441
vt 0.687500 0.985441
vt 0.687500 0.500000
vt 0.656250 0.985441
vt 0.656250 0.500000
vt 0.625000 0.985441
vt 0.625000 0.500000
vt 0.625000 0.985441
vt 0.593750 0.985441
vt 0.593750 0.500000
vt 0.593750 0.985441
vt 0.562500 0.985441
vt 0.562500 0.500000
vt 0.531250 0.985441
vt 0.531250 0.500000
vt 0.500000 0.985441
vt 0.500000 0.500000
vt 0.468750 0.985441
vt 0.468750 0.500000
vt 0.437500 0.985441
vt 0.437500 0.500000
vt 0.406250 0.985441
vt 0.406250 0.500000
vt 0.375000 0.985441
vt 0.375000 0.500000
vt 0.375000 0.985441
vt 0.343750 0.985441
vt 0.343750 0.500000
vt 0.343750 0.985441
vt 0.312500 0.985441
vt 0.312500 0.500000
vt 0.281250 0.985441
vt 0.281250 0.500000
vt 0.250000 0.985441
vt 0.250000 0.500000
vt 0.218750 0.985441
vt 0.218750 0.500000
vt 0.187500 0.985441
vt 0.187500 0.500000
vt 0.156250 0.985441
vt 0.156250 0.500000
vt 0.125000 0.985441
vt 0.125000 0.500000
vt 0.125000 0.985441
vt 0.093750 0.985441
vt 0.093750 0.500000
vt 0.093750 0.985441
vt 0.062500 0.985441
vt 0.062500 0.500000
vt 1.000000 0.500000
vt 1.000000 0.985441
vt 0.968750 0.985441
vt 0.968750 0.500000
vt 0.968750 0.985441
vt 0.750000 0.490000
vt 0.796822 0.485388
vt 0.841844 0.471731
vt 0.883337 0.449553
vt 0.919706 0.419706
vt 0.949553 0.383337
vt 0.971731 0.341844
vt 0.985388 0.296822
vt 0.990000 0.250000
vt 0.985388 0.203178
vt 0.971731 0.158156
vt 0.949553 0.116663
vt 0.919706 0.080294
vt 0.883337 0.050447
vt 0.841844 0.028269
vt 0.796822 0.014612
vt 0.750000 0.010000
vt 0.703178 0.014612
vt 0.658156 0.028269
vt 0.616663 0.050447
vt 0.580294 0.080294
vt 0.550447 0.116663
vt 0.528269 0.158156
vt 0.514612 0.203178
vt 0.510000 0.250000
vt 0.514612 0.296822
vt 0.528269 0.341844
vt 0.550447 0.383337
vt 0.580294 0.419706
vt 0.616663 0.449553
vt 0.658156 0.471731
vt 0.703178 0.485388
vt 0.296822 0.485388
vt 0.250000 0.490000
vt 0.250000 0.475956
vt 0.294082 0.471614
vt 0.341844 0.471731
vt 0.336469 0.458756
vt 0.383337 0.449553
vt 0.375534 0.437875
vt 0.419706 0.419706
vt 0.409775 0.409775
vt 0.449553 0.383337
vt 0.437875 0.375534
vt 0.471731 0.341844
vt 0.458756 0.336469
vt 0.485388 0.296822
vt 0.471614 0.294082
vt 0.490000 0.250000
vt 0.475956 0.250000
vt 0.485388 0.203178
vt 0.471614 0.205918
vt 0.471731 0.158156
vt 0.458756 0.163531
vt 0.449553 0.116663
vt 0.437875 0.124466
vt 0.419706 0.080294
vt 0.409775 0.090225
vt 0.383337 0.050447
vt 0.375534 0.062125
vt 0.341844 0.028269
vt 0.336469 0.041244
vt 0.296822 0.014612
vt 0.294082 0.028386
vt 0.250000 0.010000
vt 0.250000 0.024045
vt 0.203178 0.014612
vt 0.205918 0.028386
vt 0.158156 0.028269
vt 0.163531 0.041244
vt 0.116663 0.050447
vt 0.124466 0.062125
vt 0.080294 0.080294
vt 0.090225 0.090225
vt 0.050447 0.116663
vt 0.062125 0.124466
vt 0.028269 0.158156
vt 0.041244 0.163531
vt 0.014612 0.203178
vt 0.028386 0.205918
vt 0.010000 0.250000
vt 0.024045 0.250000
vt 0.014612 0.296822
vt 0.028386 0.294082
vt 0.028269 0.341844
vt 0.041244 0.336469
vt 0.050447 0.383337
vt 0.062125 0.375534
vt 0.080294 0.419706
vt 0.090225 0.409775
vt 0.116663 0.449553
vt 0.124466 0.437875
vt 0.158156 0.471731
vt 0.163531 0.458756
vt 0.203178 0.485388
vt 0.205918 0.471614
s 0
usemtl Material.002
f 32/1/1 96/2/1 34/3/1 1/4/1
f 3/5/2 38/6/2 40/7/2 4/8/2
f 4/8/3 40/7/3 42/9/3 5/10/3
f 5/10/4 42/11/4 44/12/4 6/13/4
f 6/13/5 44/14/5 46/15/5 7/16/5
f 7/16/6 46/15/6 48/17/6 8/18/6
f 8/18/7 48/17/7 50/19/7 9/20/7
f 9/20/8 50/19/8 52/21/8 10/22/8
f 10/22/9 52/23/9 54/24/9 11/25/9
f 11/25/10 54/24/10 56/26/10 12/27/10
f 12/27/11 56/26/11 58/28/11 13/29/11
f 13/29/12 58/30/12 60/31/12 14/32/12
f 14/32/13 60/33/13 62/34/13 15/35/13
f 15/35/14 62/34/14 64/36/14 16/37/14
f 16/37/15 64/36/15 66/38/15 17/39/15
f 17/39/16 66/38/16 68/40/16 18/41/16
f 18/41/17 68/40/17 70/42/17 19/43/17
f 19/43/18 70/42/18 72/44/18 20/45/18
f 20/45/19 72/44/19 74/46/19 21/47/19
f 21/47/20 74/48/20 76/49/20 22/50/20
f 22/50/21 76/51/21 78/52/21 23/53/21
f 23/53/22 78/52/22 80/54/22 24/55/22
f 24/55/23 80/54/23 82/56/23 25/57/23
f 25/57/24 82/56/24 84/58/24 26/59/24
f 26/59/25 84/58/25 86/60/25 27/61/25
f 27/61/26 86/60/26 88/62/26 28/63/26
f 28/63/27 88/62/27 90/64/27 29/65/27
f 29/65/28 90/66/28 92/67/28 30/68/28
f 30/68/29 92/69/29 94/70/29 31/71/29
f 31/71/30 94/70/30 96/2/30 32/1/30
f 1/72/31 34/73/31 36/74/31 2/75/31
f 2/75/32 36/76/32 38/6/32 3/5/32
f 1/77/33 2/78/33 3/79/33 4/80/33 5/81/33 6/82/33 7/83/33 8/84/33 9/85/33 10/86/33 11/87/33 12/88/33 13/89/33 14/90/33 15/91/33 16/92/33 17/93/33 18/94/33 19/95/33 20/96/33 21/97/33 22/98/33 23/99/33 24/100/33 25/101/33 26/102/33 27/103/33 28/104/33 29/105/33 30/106/33 31/107/33 32/108/33
f 36/109/34 34/110/34 33/111/34 35/112/34
f 38/113/35 36/109/35 35/112/35 37/114/35
f 40/115/36 38/113/36 37/114/36 39/116/36
f 42/117/37 40/115/37 39/116/37 41/118/37
f 44/119/38 42/117/38 41/118/38 43/120/38
f 46/121/39 44/119/39 43/120/39 45/122/39
f 48/123/40 46/121/40 45/122/40 47/124/40
f 50/125/41 48/123/41 47/124/41 49/126/41
f 52/127/42 50/125/42 49/126/42 51/128/42
f 54/129/43 52/127/43 51/128/43 53/130/43
f 56/131/44 54/129/44 53/130/44 55/132/44
f 58/133/45 56/131/45 55/132/45 57/134/45
f 60/135/46 58/133/46 57/134/46 59/136/46
f 62/137/47 60/135/47 59/136/47 61/138/47
f 64/139/48 62/137/48 61/138/48 63/140/48
f 66/141/49 64/139/49 63/140/49 65/142/49
f 68/143/50 66/141/50 65/142/50 67/144/50
f 70/145/51 68/143/51 67/144/51 69/146/51
f 72/147/52 70/145/52 69/146/52 71/148/52
f 74/149/53 72/147/53 71/148/53 73/150/53
f 76/151/54 74/149/54 73/150/54 75/152/54
f 78/153/55 76/151/55 75/152/55 77/154/55
f 80/155/56 78/153/56 77/154/56 79/156/56
f 82/157/57 80/155/57 79/156/57 81/158/57
f 84/159/58 82/157/58 81/158/58 83/160/58
f 86/161/59 84/159/59 83/160/59 85/162/59
f 88/163/60 86/161/60 85/162/60 87/164/60
f 90/165/61 88/163/61 87/164/61 89/166/61
f 92/167/62 90/165/62 89/166/62 91/168/62
f 94/169/63 92/167/63 91/168/63 93/170/63
f 96/171/64 94/169/64 93/170/64 95/172/64
f 34/110/65 96/171/65 95/172/65 33/111/65
f 47/124/6 45/122/6 103/122/6 104/124/6
f 98/112/66 97/111/66 128/172/66 127/170/66 126/168/66 125/166/66 124/164/66 123/162/66 122/160/66 121/158/66 120/156/66 119/154/66 118/152/66 117/150/66 116/148/66 115/146/66 114/144/66 113/142/66 112/140/66 111/138/66 110/136/66 109/134/66 108/132/66 107/130/66 106/128/66 105/126/66 104/124/66 103/122/66 102/120/66 101/118/66 100/116/66 99/114/66
f 65/142/15 63/140/15 112/140/15 113/142/15
f 83/160/24 81/158/24 121/158/24 122/160/24
f 39/116/2 37/114/2 99/114/2 100/116/2
f 57/134/11 55/132/11 108/132/11 109/134/11
f 75/152/20 73/150/20 117/150/20 118/152/20
f 93/170/29 91/168/29 126/168/29 127/170/29
f 49/126/7 47/124/7 104/124/7 105/126/7
f 67/144/16 65/142/16 113/142/16 114/144/16
f 85/162/25 83/160/25 122/160/25 123/162/25
f 41/118/3 39/116/3 100/116/3 101/118/3
f 59/136/12 57/134/12 109/134/12 110/136/12
f 77/154/21 75/152/21 118/152/21 119/154/21
f 95/172/30 93/170/30 127/170/30 128/172/30
f 51/128/8 49/126/8 105/126/8 106/128/8
f 69/146/17 67/144/17 114/144/17 115/146/17
f 87/164/26 85/162/26 123/162/26 124/164/26
f 33/111/1 95/172/1 128/172/1 97/111/1
f 43/120/4 41/118/4 101/118/4 102/120/4
f 61/138/13 59/136/13 110/136/13 111/138/13
f 79/156/22 77/154/22 119/154/22 120/156/22
f 35/112/31 33/111/31 97/111/31 98/112/31
f 53/130/9 51/128/9 106/128/9 107/130/9
f 71/148/18 69/146/18 115/146/18 116/148/18
f 89/166/27 87/164/27 124/164/27 125/166/27
f 45/122/5 43/120/5 102/120/5 103/122/5
f 63/140/14 61/138/14 111/138/14 112/140/14
f 81/158/23 79/156/23 120/156/23 121/158/23
f 37/114/32 35/112/32 98/112/32 99/114/32
f 55/132/10 53/130/10 107/130/10 108/132/10
f 73/150/19 71/148/19 116/148/19 117/150/19
f 91/168/28 89/166/28 125/166/28 126/168/28
g Text_Text
v -0.113556 0.234404 0.766913
v -0.113556 0.234404 -0.766913
v 0.113556 0.234404 -0.766913
v 0.113556 0.234404 0.766913
v -0.113556 0.054404 0.766913
v -0.113556 0.054404 -0.766913
v 0.113556 0.054404 -0.766913
v 0.113556 0.054404 0.766913
v -0.113556 0.054404 0.766913
v -0.113556 0.234404 0.766913
v -0.113556 0.054404 -0.766913
v -0.113556 0.234404 -0.766913
v 0.113556 0.054404 -0.766913
v 0.113556 0.234404 -0.766913
v 0.113556 0.054404 0.766913
v 0.113556 0.234404 0.766913
vn -0.0000 1.0000 -0.0000
vn -0.0000 -1.0000 -0.0000
vn -0.6964 -0.0000 0.7176
vn -0.6964 -0.0000 -0.7176
vn 0.6964 -0.0000 -0.7176
vn 0.6964 -0.0000 0.7176
vt 0.000000 0.000000
vt 0.666667 0.000000
vt 0.333333 0.000000
vt 1.000000 0.000000
vt 0.000000 1.000000
vt 0.250000 1.000000
vt 0.250000 0.000000
vt 0.500000 1.000000
vt 0.500000 0.000000
vt 0.750000 1.000000
vt 0.750000 0.000000
vt 1.000000 1.000000
s 0
usemtl Material.001
f 129/173/67 131/174/67 130/175/67
f 129/173/67 132/176/67 131/174/67
f 133/173/68 134/175/68 135/174/68
f 133/173/68 135/174/68 136/176/68
s 1
f 138/177/69 140/178/70 139/179/70 137/173/69
f 140/178/70 142/180/71 141/181/71 139/179/70
f 142/180/71 144/182/72 143/183/72 141/181/71
f 144/182/72 138/184/69 137/176/69 143/183/72
