# Blender 4.4.3
# www.blender.org
mtllib button_hiru.mtl
g Cylinder.002_Cylinder.002
v -0.000000 -0.112445 -6.000000
v 0.195090 -0.112445 -5.980785
v 0.382683 -0.112445 -5.923880
v 0.555570 -0.112445 -5.831470
v 0.707107 -0.112445 -5.707107
v 0.831470 -0.112445 -5.555570
v 0.923880 -0.112445 -5.382683
v 0.980785 -0.112445 -5.195090
v 1.000000 -0.112445 -5.000000
v 0.980785 -0.112445 -4.804910
v 0.923880 -0.112445 -4.617317
v 0.831470 -0.112445 -4.444430
v 0.707107 -0.112445 -4.292893
v 0.555570 -0.112445 -4.168530
v 0.382683 -0.112445 -4.076120
v 0.195090 -0.112445 -4.019215
v -0.000000 -0.112445 -4.000000
v -0.195090 -0.112445 -4.019215
v -0.382683 -0.112445 -4.076120
v -0.555570 -0.112445 -4.168530
v -0.707107 -0.112445 -4.292893
v -0.831470 -0.112445 -4.444430
v -0.923880 -0.112445 -4.617317
v -0.980785 -0.112445 -4.804910
v -1.000000 -0.112445 -5.000000
v -0.980785 -0.112445 -5.195090
v -0.923880 -0.112445 -5.382683
v -0.831470 -0.112445 -5.555570
v -0.707107 -0.112445 -5.707107
v -0.555570 -0.112445 -5.831470
v -0.382683 -0.112445 -5.923880
v -0.195090 -0.112445 -5.980785
v -0.000000 0.102787 -5.941481
v -0.000000 0.096520 -6.000000
v 0.183674 0.102787 -5.923391
v 0.195090 0.096520 -5.980785
v 0.360289 0.102787 -5.869815
v 0.382683 0.096520 -5.923880
v 0.523059 0.102787 -5.782813
v 0.555570 0.096520 -5.831470
v 0.665728 0.102787 -5.665728
v 0.707107 0.096520 -5.707107
v 0.782813 0.102787 -5.523059
v 0.831470 0.096520 -5.555570
v 0.869815 0.102787 -5.360289
v 0.923880 0.096520 -5.382683
v 0.923391 0.102787 -5.183674
v 0.980785 0.096520 -5.195090
v 0.941481 0.102787 -5.000000
v 1.000000 0.096520 -5.000000
v 0.923391 0.102787 -4.816326
v 0.980785 0.096520 -4.804910
v 0.869815 0.102787 -4.639711
v 0.923880 0.096520 -4.617317
v 0.782813 0.102787 -4.476941
v 0.831470 0.096520 -4.444430
v 0.665728 0.102787 -4.334272
v 0.707107 0.096520 -4.292893
v 0.523059 0.102787 -4.217187
v 0.555570 0.096520 -4.168530
v 0.360289 0.102787 -4.130185
v 0.382683 0.096520 -4.076120
v 0.183674 0.102787 -4.076609
v 0.195090 0.096520 -4.019215
v -0.000000 0.102787 -4.058519
v -0.000000 0.096520 -4.000000
v -0.183674 0.102787 -4.076609
v -0.195090 0.096520 -4.019215
v -0.360289 0.102787 -4.130185
v -0.382683 0.096520 -4.076120
v -0.523059 0.102787 -4.217187
v -0.555570 0.096520 -4.168530
v -0.665728 0.102787 -4.334272
v -0.707107 0.096520 -4.292893
v -0.782813 0.102787 -4.476941
v -0.831470 0.096520 -4.444430
v -0.869815 0.102787 -4.639711
v -0.923880 0.096520 -4.617317
v -0.923391 0.102787 -4.816326
v -0.980785 0.096520 -4.804910
v -0.941481 0.102787 -5.000000
v -1.000000 0.096520 -5.000000
v -0.923391 0.102787 -5.183674
v -0.980785 0.096520 -5.195090
v -0.869815 0.102787 -5.360289
v -0.923880 0.096520 -5.382683
v -0.782813 0.102787 -5.523059
v -0.831470 0.096520 -5.555570
v -0.665728 0.102787 -5.665728
v -0.707107 0.096520 -5.707107
v -0.523059 0.102787 -5.782813
v -0.555570 0.096520 -5.831470
v -0.360289 0.102787 -5.869815
v -0.382683 0.096520 -5.923880
v -0.183674 0.102787 -5.923391
v -0.195090 0.096520 -5.980785
v -0.000000 0.154972 -5.941481
v 0.183674 0.154972 -5.923391
v 0.360289 0.154972 -5.869815
v 0.523059 0.154972 -5.782813
v 0.665728 0.154972 -5.665728
v 0.782813 0.154972 -5.523059
v 0.869815 0.154972 -5.360289
v 0.923391 0.154972 -5.183674
v 0.941481 0.154972 -5.000000
v 0.923391 0.154972 -4.816326
v 0.869815 0.154972 -4.639711
v 0.782813 0.154972 -4.476941
v 0.665728 0.154972 -4.334272
v 0.523059 0.154972 -4.217187
v 0.360289 0.154972 -4.130185
v 0.183674 0.154972 -4.076609
v -0.000000 0.154972 -4.058519
v -0.183674 0.154972 -4.076609
v -0.360289 0.154972 -4.130185
v -0.523059 0.154972 -4.217187
v -0.665728 0.154972 -4.334272
v -0.782813 0.154972 -4.476941
v -0.869815 0.154972 -4.639711
v -0.923391 0.154972 -4.816326
v -0.941481 0.154972 -5.000000
v -0.923391 0.154972 -5.183674
v -0.869815 0.154972 -5.360289
v -0.782813 0.154972 -5.523059
v -0.665728 0.154972 -5.665728
v -0.523059 0.154972 -5.782813
v -0.360289 0.154972 -5.869815
v -0.183674 0.154972 -5.923391
vn -0.0980 -0.0000 -0.9952
vn 0.4714 -0.0000 -0.8819
vn 0.6344 -0.0000 -0.7730
vn 0.7730 -0.0000 -0.6344
vn 0.8819 -0.0000 -0.4714
vn 0.9569 -0.0000 -0.2903
vn 0.9952 -0.0000 -0.0980
vn 0.9952 -0.0000 0.0980
vn 0.9569 -0.0000 0.2903
vn 0.8819 -0.0000 0.4714
vn 0.7730 -0.0000 0.6344
vn 0.6344 -0.0000 0.7730
vn 0.4714 -0.0000 0.8819
vn 0.2903 -0.0000 0.9569
vn 0.0980 -0.0000 0.9952
vn -0.0980 -0.0000 0.9952
vn -0.2903 -0.0000 0.9569
vn -0.4714 -0.0000 0.8819
vn -0.6344 -0.0000 0.7730
vn -0.7730 -0.0000 0.6344
vn -0.8819 -0.0000 0.4714
vn -0.9569 -0.0000 0.2903
vn -0.9952 -0.0000 0.0980
vn -0.9952 -0.0000 -0.0980
vn -0.9569 -0.0000 -0.2903
vn -0.8819 -0.0000 -0.4714
vn -0.7730 -0.0000 -0.6344
vn -0.6344 -0.0000 -0.7730
vn -0.4714 -0.0000 -0.8819
vn -0.2903 -0.0000 -0.9569
vn 0.0980 -0.0000 -0.9952
vn 0.2903 -0.0000 -0.9569
vn -0.0000 -1.0000 -0.0000
vn 0.0105 0.9943 -0.1065
vn 0.0311 0.9943 -0.1024
vn 0.0504 0.9943 -0.0944
vn 0.0679 0.9943 -0.0827
vn 0.0827 0.9943 -0.0679
vn 0.0944 0.9943 -0.0504
vn 0.1024 0.9943 -0.0311
vn 0.1065 0.9943 -0.0105
vn 0.1065 0.9943 0.0105
vn 0.1024 0.9943 0.0311
vn 0.0944 0.9943 0.0504
vn 0.0827 0.9943 0.0679
vn 0.0679 0.9943 0.0827
vn 0.0504 0.9943 0.0944
vn 0.0311 0.9943 0.1024
vn 0.0105 0.9943 0.1065
vn -0.0105 0.9943 0.1065
vn -0.0311 0.9943 0.1024
vn -0.0504 0.9943 0.0944
vn -0.0679 0.9943 0.0827
vn -0.0827 0.9943 0.0679
vn -0.0944 0.9943 0.0504
vn -0.1024 0.9943 0.0311
vn -0.1065 0.9943 0.0105
vn -0.1065 0.9943 -0.0105
vn -0.1024 0.9943 -0.0311
vn -0.0944 0.9943 -0.0504
vn -0.0827 0.9943 -0.0679
vn -0.0679 0.9943 -0.0827
vn -0.0504 0.9943 -0.0944
vn -0.0311 0.9943 -0.1024
vn -0.0105 0.9943 -0.1065
vn -0.0000 1.0000 -0.0000
vt 0.031250 0.500000
vt 0.031250 0.985441
vt 0.000000 0.985441
vt 0.000000 0.500000
vt 0.937500 0.500000
vt 0.937500 0.985441
vt 0.906250 0.985441
vt 0.906250 0.500000
vt 0.875000 0.985441
vt 0.875000 0.500000
vt 0.875000 0.985441
vt 0.843750 0.985441
vt 0.843750 0.500000
vt 0.843750 0.985441
vt 0.812500 0.985441
vt 0.812500 0.500000
vt 0.781250 0.985441
vt 0.781250 0.500000
vt 0.750000 0.985441
vt 0.750000 0.500000
vt 0.718750 0.985441
vt 0.718750 0.500000
vt 0.718750 0.985441
vt 0.687500 0.985441
vt 0.687500 0.500000
vt 0.656250 0.985441
vt 0.656250 0.500000
vt 0.625000 0.985441
vt 0.625000 0.500000
vt 0.625000 0.985441
vt 0.593750 0.985441
vt 0.593750 0.500000
vt 0.593750 0.985441
vt 0.562500 0.985441
vt 0.562500 0.500000
vt 0.531250 0.985441
vt 0.531250 0.500000
vt 0.500000 0.985441
vt 0.500000 0.500000
vt 0.468750 0.985441
vt 0.468750 0.500000
vt 0.437500 0.985441
vt 0.437500 0.500000
vt 0.406250 0.985441
vt 0.406250 0.500000
vt 0.375000 0.985441
vt 0.375000 0.500000
vt 0.375000 0.985441
vt 0.343750 0.985441
vt 0.343750 0.500000
vt 0.343750 0.985441
vt 0.312500 0.985441
vt 0.312500 0.500000
vt 0.281250 0.985441
vt 0.281250 0.500000
vt 0.250000 0.985441
vt 0.250000 0.500000
vt 0.218750 0.985441
vt 0.218750 0.500000
vt 0.187500 0.985441
vt 0.187500 0.500000
vt 0.156250 0.985441
vt 0.156250 0.500000
vt 0.125000 0.985441
vt 0.125000 0.500000
vt 0.125000 0.985441
vt 0.093750 0.985441
vt 0.093750 0.500000
vt 0.093750 0.985441
vt 0.062500 0.985441
vt 0.062500 0.500000
vt 1.000000 0.500000
vt 1.000000 0.985441
vt 0.968750 0.985441
vt 0.968750 0.500000
vt 0.968750 0.985441
vt 0.750000 0.490000
vt 0.796822 0.485388
vt 0.841844 0.471731
vt 0.883337 0.449553
vt 0.919706 0.419706
vt 0.949553 0.383337
vt 0.971731 0.341844
vt 0.985388 0.296822
vt 0.990000 0.250000
vt 0.985388 0.203178
vt 0.971731 0.158156
vt 0.949553 0.116663
vt 0.919706 0.080294
vt 0.883337 0.050447
vt 0.841844 0.028269
vt 0.796822 0.014612
vt 0.750000 0.010000
vt 0.703178 0.014612
vt 0.658156 0.028269
vt 0.616663 0.050447
vt 0.580294 0.080294
vt 0.550447 0.116663
vt 0.528269 0.158156
vt 0.514612 0.203178
vt 0.510000 0.250000
vt 0.514612 0.296822
vt 0.528269 0.341844
vt 0.550447 0.383337
vt 0.580294 0.419706
vt 0.616663 0.449553
vt 0.658156 0.471731
vt 0.703178 0.485388
vt 0.296822 0.485388
vt 0.250000 0.490000
vt 0.250000 0.475956
vt 0.294082 0.471614
vt 0.341844 0.471731
vt 0.336469 0.458756
vt 0.383337 0.449553
vt 0.375534 0.437875
vt 0.419706 0.419706
vt 0.409775 0.409775
vt 0.449553 0.383337
vt 0.437875 0.375534
vt 0.471731 0.341844
vt 0.458756 0.336469
vt 0.485388 0.296822
vt 0.471614 0.294082
vt 0.490000 0.250000
vt 0.475956 0.250000
vt 0.485388 0.203178
vt 0.471614 0.205918
vt 0.471731 0.158156
vt 0.458756 0.163531
vt 0.449553 0.116663
vt 0.437875 0.124466
vt 0.419706 0.080294
vt 0.409775 0.090225
vt 0.383337 0.050447
vt 0.375534 0.062125
vt 0.341844 0.028269
vt 0.336469 0.041244
vt 0.296822 0.014612
vt 0.294082 0.028386
vt 0.250000 0.010000
vt 0.250000 0.024045
vt 0.203178 0.014612
vt 0.205918 0.028386
vt 0.158156 0.028269
vt 0.163531 0.041244
vt 0.116663 0.050447
vt 0.124466 0.062125
vt 0.080294 0.080294
vt 0.090225 0.090225
vt 0.050447 0.116663
vt 0.062125 0.124466
vt 0.028269 0.158156
vt 0.041244 0.163531
vt 0.014612 0.203178
vt 0.028386 0.205918
vt 0.010000 0.250000
vt 0.024045 0.250000
vt 0.014612 0.296822
vt 0.028386 0.294082
vt 0.028269 0.341844
vt 0.041244 0.336469
vt 0.050447 0.383337
vt 0.062125 0.375534
vt 0.080294 0.419706
vt 0.090225 0.409775
vt 0.116663 0.449553
vt 0.124466 0.437875
vt 0.158156 0.471731
vt 0.163531 0.458756
vt 0.203178 0.485388
vt 0.205918 0.471614
s 0
usemtl Material.002
f 32/1/1 96/2/1 34/3/1 1/4/1
f 3/5/2 38/6/2 40/7/2 4/8/2
f 4/8/3 40/7/3 42/9/3 5/10/3
f 5/10/4 42/11/4 44/12/4 6/13/4
f 6/13/5 44/14/5 46/15/5 7/16/5
f 7/16/6 46/15/6 48/17/6 8/18/6
f 8/18/7 48/17/7 50/19/7 9/20/7
f 9/20/8 50/19/8 52/21/8 10/22/8
f 10/22/9 52/23/9 54/24/9 11/25/9
f 11/25/10 54/24/10 56/26/10 12/27/10
f 12/27/11 56/26/11 58/28/11 13/29/11
f 13/29/12 58/30/12 60/31/12 14/32/12
f 14/32/13 60/33/13 62/34/13 15/35/13
f 15/35/14 62/34/14 64/36/14 16/37/14
f 16/37/15 64/36/15 66/38/15 17/39/15
f 17/39/16 66/38/16 68/40/16 18/41/16
f 18/41/17 68/40/17 70/42/17 19/43/17
f 19/43/18 70/42/18 72/44/18 20/45/18
f 20/45/19 72/44/19 74/46/19 21/47/19
f 21/47/20 74/48/20 76/49/20 22/50/20
f 22/50/21 76/51/21 78/52/21 23/53/21
f 23/53/22 78/52/22 80/54/22 24/55/22
f 24/55/23 80/54/23 82/56/23 25/57/23
f 25/57/24 82/56/24 84/58/24 26/59/24
f 26/59/25 84/58/25 86/60/25 27/61/25
f 27/61/26 86/60/26 88/62/26 28/63/26
f 28/63/27 88/62/27 90/64/27 29/65/27
f 29/65/28 90/66/28 92/67/28 30/68/28
f 30/68/29 92/69/29 94/70/29 31/71/29
f 31/71/30 94/70/30 96/2/30 32/1/30
f 1/72/31 34/73/31 36/74/31 2/75/31
f 2/75/32 36/76/32 38/6/32 3/5/32
f 1/77/33 2/78/33 3/79/33 4/80/33 5/81/33 6/82/33 7/83/33 8/84/33 9/85/33 10/86/33 11/87/33 12/88/33 13/89/33 14/90/33 15/91/33 16/92/33 17/93/33 18/94/33 19/95/33 20/96/33 21/97/33 22/98/33 23/99/33 24/100/33 25/101/33 26/102/33 27/103/33 28/104/33 29/105/33 30/106/33 31/107/33 32/108/33
f 36/109/34 34/110/34 33/111/34 35/112/34
f 38/113/35 36/109/35 35/112/35 37/114/35
f 40/115/36 38/113/36 37/114/36 39/116/36
f 42/117/37 40/115/37 39/116/37 41/118/37
f 44/119/38 42/117/38 41/118/38 43/120/38
f 46/121/39 44/119/39 43/120/39 45/122/39
f 48/123/40 46/121/40 45/122/40 47/124/40
f 50/125/41 48/123/41 47/124/41 49/126/41
f 52/127/42 50/125/42 49/126/42 51/128/42
f 54/129/43 52/127/43 51/128/43 53/130/43
f 56/131/44 54/129/44 53/130/44 55/132/44
f 58/133/45 56/131/45 55/132/45 57/134/45
f 60/135/46 58/133/46 57/134/46 59/136/46
f 62/137/47 60/135/47 59/136/47 61/138/47
f 64/139/48 62/137/48 61/138/48 63/140/48
f 66/141/49 64/139/49 63/140/49 65/142/49
f 68/143/50 66/141/50 65/142/50 67/144/50
f 70/145/51 68/143/51 67/144/51 69/146/51
f 72/147/52 70/145/52 69/146/52 71/148/52
f 74/149/53 72/147/53 71/148/53 73/150/53
f 76/151/54 74/149/54 73/150/54 75/152/54
f 78/153/55 76/151/55 75/152/55 77/154/55
f 80/155/56 78/153/56 77/154/56 79/156/56
f 82/157/57 80/155/57 79/156/57 81/158/57
f 84/159/58 82/157/58 81/158/58 83/160/58
f 86/161/59 84/159/59 83/160/59 85/162/59
f 88/163/60 86/161/60 85/162/60 87/164/60
f 90/165/61 88/163/61 87/164/61 89/166/61
f 92/167/62 90/165/62 89/166/62 91/168/62
f 94/169/63 92/167/63 91/168/63 93/170/63
f 96/171/64 94/169/64 93/170/64 95/172/64
f 34/110/65 96/171/65 95/172/65 33/111/65
f 47/124/6 45/122/6 103/122/6 104/124/6
f 98/112/66 97/111/66 128/172/66 127/170/66 126/168/66 125/166/66 124/164/66 123/162/66 122/160/66 121/158/66 120/156/66 119/154/66 118/152/66 117/150/66 116/148/66 115/146/66 114/144/66 113/142/66 112/140/66 111/138/66 110/136/66 109/134/66 108/132/66 107/130/66 106/128/66 105/126/66 104/124/66 103/122/66 102/120/66 101/118/66 100/116/66 99/114/66
f 65/142/15 63/140/15 112/140/15 113/142/15
f 83/160/24 81/158/24 121/158/24 122/160/24
f 39/116/2 37/114/2 99/114/2 100/116/2
f 57/134/11 55/132/11 108/132/11 109/134/11
f 75/152/20 73/150/20 117/150/20 118/152/20
f 93/170/29 91/168/29 126/168/29 127/170/29
f 49/126/7 47/124/7 104/124/7 105/126/7
f 67/144/16 65/142/16 113/142/16 114/144/16
f 85/162/25 83/160/25 122/160/25 123/162/25
f 41/118/3 39/116/3 100/116/3 101/118/3
f 59/136/12 57/134/12 109/134/12 110/136/12
f 77/154/21 75/152/21 118/152/21 119/154/21
f 95/172/30 93/170/30 127/170/30 128/172/30
f 51/128/8 49/126/8 105/126/8 106/128/8
f 69/146/17 67/144/17 114/144/17 115/146/17
f 87/164/26 85/162/26 123/162/26 124/164/26
f 33/111/1 95/172/1 128/172/1 97/111/1
f 43/120/4 41/118/4 101/118/4 102/120/4
f 61/138/13 59/136/13 110/136/13 111/138/13
f 79/156/22 77/154/22 119/154/22 120/156/22
f 35/112/31 33/111/31 97/111/31 98/112/31
f 53/130/9 51/128/9 106/128/9 107/130/9
f 71/148/18 69/146/18 115/146/18 116/148/18
f 89/166/27 87/164/27 124/164/27 125/166/27
f 45/122/5 43/120/5 102/120/5 103/122/5
f 63/140/14 61/138/14 111/138/14 112/140/14
f 81/158/23 79/156/23 120/156/23 121/158/23
f 37/114/32 35/112/32 98/112/32 99/114/32
f 55/132/10 53/130/10 107/130/10 108/132/10
f 73/150/19 71/148/19 116/148/19 117/150/19
f 91/168/28 89/166/28 125/166/28 126/168/28
g Text.002_Text.002
v -0.326291 0.244730 -5.695732
v -0.304546 0.244730 -5.704959
v -0.282772 0.244730 -5.713237
v -0.260864 0.244730 -5.720581
v -0.238719 0.244730 -5.727005
v -0.216233 0.244730 -5.732524
v -0.193303 0.244730 -5.737154
v -0.169823 0.244730 -5.740909
v -0.145691 0.244730 -5.743803
v -0.120802 0.244730 -5.745852
v -0.095053 0.244730 -5.747071
v -0.068340 0.244730 -5.747474
v -0.005161 0.244730 -5.744399
v 0.053925 0.244730 -5.735332
v 0.108651 0.244730 -5.720511
v 0.158749 0.244730 -5.700173
v 0.203954 0.244730 -5.674555
v 0.243997 0.244730 -5.643895
v 0.278612 0.244730 -5.608430
v 0.307532 0.244730 -5.568397
v 0.330490 0.244730 -5.524033
v 0.347219 0.244730 -5.475575
v 0.357453 0.244730 -5.423262
v 0.360923 0.244730 -5.367330
v 0.359796 0.244730 -5.328191
v 0.356355 0.244730 -5.291811
v 0.350512 0.244730 -5.258012
v 0.342177 0.244730 -5.226615
v 0.331261 0.244730 -5.197443
v 0.317676 0.244730 -5.170317
v 0.301333 0.244730 -5.145061
v 0.282142 0.244730 -5.121494
v 0.260014 0.244730 -5.099441
v 0.234861 0.244730 -5.078722
v 0.206593 0.244730 -5.059160
v 0.175122 0.244730 -5.040577
v 0.209747 0.244730 -5.027204
v 0.241050 0.244730 -5.009758
v 0.269091 0.244730 -4.988621
v 0.293927 0.244730 -4.964169
v 0.315620 0.244730 -4.936780
v 0.334228 0.244730 -4.906833
v 0.349810 0.244730 -4.874705
v 0.362426 0.244730 -4.840776
v 0.372135 0.244730 -4.805423
v 0.378997 0.244730 -4.769025
v 0.383070 0.244730 -4.731959
v 0.384415 0.244730 -4.694603
v 0.380519 0.244730 -4.631172
v 0.369090 0.244730 -4.571389
v 0.350512 0.244730 -4.515610
v 0.325171 0.244730 -4.464192
v 0.293453 0.244730 -4.417490
v 0.255743 0.244730 -4.375859
v 0.212427 0.244730 -4.339657
v 0.163891 0.244730 -4.309239
v 0.110519 0.244730 -4.284961
v 0.052699 0.244730 -4.267179
v -0.009185 0.244730 -4.256249
v -0.074747 0.244730 -4.252526
v -0.099928 0.244730 -4.253145
v -0.125271 0.244730 -4.254988
v -0.150763 0.244730 -4.258032
v -0.176388 0.244730 -4.262255
v -0.202132 0.244730 -4.267635
v -0.227979 0.244730 -4.274149
v -0.253916 0.244730 -4.281776
v -0.279927 0.244730 -4.290493
v -0.305997 0.244730 -4.300278
v -0.332112 0.244730 -4.311108
v -0.358256 0.244730 -4.322962
v -0.384415 0.244730 -4.335816
v -0.384415 0.244730 -4.562194
v -0.356738 0.244730 -4.544307
v -0.329225 0.244730 -4.528014
v -0.301859 0.244730 -4.513308
v -0.274627 0.244730 -4.500181
v -0.247514 0.244730 -4.488627
v -0.220505 0.244730 -4.478637
v -0.193584 0.244730 -4.470204
v -0.166738 0.244730 -4.463322
v -0.139951 0.244730 -4.457982
v -0.113209 0.244730 -4.454176
v -0.086496 0.244730 -4.451898
v -0.059798 0.244730 -4.451140
v -0.025117 0.244730 -4.453029
v 0.007287 0.244730 -4.458596
v 0.037274 0.244730 -4.467692
v 0.064702 0.244730 -4.480170
v 0.089431 0.244730 -4.495880
v 0.111320 0.244730 -4.514676
v 0.130228 0.244730 -4.536408
v 0.146014 0.244730 -4.560928
v 0.158538 0.244730 -4.588089
v 0.167658 0.244730 -4.617740
v 0.173233 0.244730 -4.649735
v 0.175122 0.244730 -4.683925
v 0.172943 0.244730 -4.718978
v 0.166412 0.244730 -4.752385
v 0.155535 0.244730 -4.783833
v 0.140319 0.244730 -4.813013
v 0.120774 0.244730 -4.839612
v 0.096905 0.244730 -4.863319
v 0.068720 0.244730 -4.883822
v 0.036227 0.244730 -4.900811
v -0.000567 0.244730 -4.913974
v -0.041655 0.244730 -4.922998
v -0.087029 0.244730 -4.927574
v -0.136681 0.244730 -4.927388
v -0.136681 0.244730 -5.119596
v -0.090631 0.244730 -5.121227
v -0.048586 0.244730 -5.126062
v -0.010545 0.244730 -5.134011
v 0.023492 0.244730 -5.144986
v 0.053524 0.244730 -5.158897
v 0.079553 0.244730 -5.175656
v 0.101576 0.244730 -5.195174
v 0.119596 0.244730 -5.217360
v 0.133611 0.244730 -5.242128
v 0.143622 0.244730 -5.269387
v 0.149628 0.244730 -5.299049
v 0.151630 0.244730 -5.331024
v 0.149608 0.244730 -5.363574
v 0.143642 0.244730 -5.393877
v 0.133878 0.244730 -5.421822
v 0.120466 0.244730 -5.447298
v 0.103554 0.244730 -5.470193
v 0.083290 0.244730 -5.490396
v 0.059823 0.244730 -5.507796
v 0.033300 0.244730 -5.522283
v 0.003871 0.244730 -5.533743
v -0.028317 0.244730 -5.542067
v -0.063115 0.244730 -5.547143
v -0.100375 0.244730 -5.548860
v -0.119932 0.244730 -5.548497
v -0.139192 0.244730 -5.547386
v -0.158304 0.244730 -5.545489
v -0.177416 0.244730 -5.542769
v -0.196677 0.244730 -5.539188
v -0.216234 0.244730 -5.534711
v -0.236235 0.244730 -5.529299
v -0.256830 0.244730 -5.522915
v -0.278167 0.244730 -5.515523
v -0.300394 0.244730 -5.507086
v -0.323658 0.244730 -5.497566
v -0.348109 0.244730 -5.486926
v -0.348109 0.244730 -5.685540
v -0.326291 -0.095270 -5.695732
v -0.304546 -0.095270 -5.704959
v -0.282772 -0.095270 -5.713237
v -0.260864 -0.095270 -5.720581
v -0.238719 -0.095270 -5.727005
v -0.216233 -0.095270 -5.732524
v -0.193303 -0.095270 -5.737154
v -0.169823 -0.095270 -5.740909
v -0.145691 -0.095270 -5.743803
v -0.120802 -0.095270 -5.745852
v -0.095053 -0.095270 -5.747071
v -0.068340 -0.095270 -5.747474
v -0.005161 -0.095270 -5.744399
v 0.053925 -0.095270 -5.735332
v 0.108651 -0.095270 -5.720511
v 0.158749 -0.095270 -5.700173
v 0.203954 -0.095270 -5.674555
v 0.243997 -0.095270 -5.643895
v 0.278612 -0.095270 -5.608430
v 0.307532 -0.095270 -5.568397
v 0.330490 -0.095270 -5.524033
v 0.347219 -0.095270 -5.475575
v 0.357453 -0.095270 -5.423262
v 0.360923 -0.095270 -5.367330
v 0.359796 -0.095270 -5.328191
v 0.356355 -0.095270 -5.291811
v 0.350512 -0.095270 -5.258012
v 0.342177 -0.095270 -5.226615
v 0.331261 -0.095270 -5.197443
v 0.317676 -0.095270 -5.170317
v 0.301333 -0.095270 -5.145061
v 0.282142 -0.095270 -5.121494
v 0.260014 -0.095270 -5.099441
v 0.234861 -0.095270 -5.078722
v 0.206593 -0.095270 -5.059160
v 0.175122 -0.095270 -5.040577
v 0.209747 -0.095270 -5.027204
v 0.241050 -0.095270 -5.009758
v 0.269091 -0.095270 -4.988621
v 0.293927 -0.095270 -4.964169
v 0.315620 -0.095270 -4.936780
v 0.334228 -0.095270 -4.906833
v 0.349810 -0.095270 -4.874705
v 0.362426 -0.095270 -4.840776
v 0.372135 -0.095270 -4.805423
v 0.378997 -0.095270 -4.769025
v 0.383070 -0.095270 -4.731959
v 0.384415 -0.095270 -4.694603
v 0.380519 -0.095270 -4.631172
v 0.369090 -0.095270 -4.571389
v 0.350512 -0.095270 -4.515610
v 0.325171 -0.095270 -4.464192
v 0.293453 -0.095270 -4.417490
v 0.255743 -0.095270 -4.375859
v 0.212427 -0.095270 -4.339657
v 0.163891 -0.095270 -4.309239
v 0.110519 -0.095270 -4.284961
v 0.052699 -0.095270 -4.267179
v -0.009185 -0.095270 -4.256249
v -0.074747 -0.095270 -4.252526
v -0.099928 -0.095270 -4.253145
v -0.125271 -0.095270 -4.254988
v -0.150763 -0.095270 -4.258032
v -0.176388 -0.095270 -4.262255
v -0.202132 -0.095270 -4.267635
v -0.227979 -0.095270 -4.274149
v -0.253916 -0.095270 -4.281776
v -0.279927 -0.095270 -4.290493
v -0.305997 -0.095270 -4.300278
v -0.332112 -0.095270 -4.311108
v -0.358256 -0.095270 -4.322962
v -0.384415 -0.095270 -4.335816
v -0.384415 -0.095270 -4.562194
v -0.356738 -0.095270 -4.544307
v -0.329225 -0.095270 -4.528014
v -0.301859 -0.095270 -4.513308
v -0.274627 -0.095270 -4.500181
v -0.247514 -0.095270 -4.488627
v -0.220505 -0.095270 -4.478637
v -0.193584 -0.095270 -4.470204
v -0.166738 -0.095270 -4.463322
v -0.139951 -0.095270 -4.457982
v -0.113209 -0.095270 -4.454176
v -0.086496 -0.095270 -4.451898
v -0.059798 -0.095270 -4.451140
v -0.025117 -0.095270 -4.453029
v 0.007287 -0.095270 -4.458596
v 0.037274 -0.095270 -4.467692
v 0.064702 -0.095270 -4.480170
v 0.089431 -0.095270 -4.495880
v 0.111320 -0.095270 -4.514676
v 0.130228 -0.095270 -4.536408
v 0.146014 -0.095270 -4.560928
v 0.158538 -0.095270 -4.588089
v 0.167658 -0.095270 -4.617740
v 0.173233 -0.095270 -4.649735
v 0.175122 -0.095270 -4.683925
v 0.172943 -0.095270 -4.718978
v 0.166412 -0.095270 -4.752385
v 0.155535 -0.095270 -4.783833
v 0.140319 -0.095270 -4.813013
v 0.120774 -0.095270 -4.839612
v 0.096905 -0.095270 -4.863319
v 0.068720 -0.095270 -4.883822
v 0.036227 -0.095270 -4.900811
v -0.000567 -0.095270 -4.913974
v -0.041655 -0.095270 -4.922998
v -0.087029 -0.095270 -4.927574
v -0.136681 -0.095270 -4.927388
v -0.136681 -0.095270 -5.119596
v -0.090631 -0.095270 -5.121227
v -0.048586 -0.095270 -5.126062
v -0.010545 -0.095270 -5.134011
v 0.023492 -0.095270 -5.144986
v 0.053524 -0.095270 -5.158897
v 0.079553 -0.095270 -5.175656
v 0.101576 -0.095270 -5.195174
v 0.119596 -0.095270 -5.217360
v 0.133611 -0.095270 -5.242128
v 0.143622 -0.095270 -5.269387
v 0.149628 -0.095270 -5.299049
v 0.151630 -0.095270 -5.331024
v 0.149608 -0.095270 -5.363574
v 0.143642 -0.095270 -5.393877
v 0.133878 -0.095270 -5.421822
v 0.120466 -0.095270 -5.447298
v 0.103554 -0.095270 -5.470193
v 0.083290 -0.095270 -5.490396
v 0.059823 -0.095270 -5.507796
v 0.033300 -0.095270 -5.522283
v 0.003871 -0.095270 -5.533743
v -0.028317 -0.095270 -5.542067
v -0.063115 -0.095270 -5.547143
v -0.100375 -0.095270 -5.548860
v -0.119932 -0.095270 -5.548497
v -0.139192 -0.095270 -5.547386
v -0.158304 -0.095270 -5.545489
v -0.177416 -0.095270 -5.542769
v -0.196677 -0.095270 -5.539188
v -0.216234 -0.095270 -5.534711
v -0.236235 -0.095270 -5.529299
v -0.256830 -0.095270 -5.522915
v -0.278167 -0.095270 -5.515523
v -0.300394 -0.095270 -5.507086
v -0.323658 -0.095270 -5.497566
v -0.348109 -0.095270 -5.486926
v -0.348109 -0.095270 -5.685540
v -0.326291 -0.095270 -5.695732
v -0.326291 0.244730 -5.695732
v -0.304546 -0.095270 -5.704959
v -0.304546 0.244730 -5.704959
v -0.282772 -0.095270 -5.713237
v -0.282772 0.244730 -5.713237
v -0.260864 -0.095270 -5.720581
v -0.260864 0.244730 -5.720581
v -0.238719 -0.095270 -5.727005
v -0.238719 0.244730 -5.727005
v -0.216233 -0.095270 -5.732524
v -0.216233 0.244730 -5.732524
v -0.193303 -0.095270 -5.737154
v -0.193303 0.244730 -5.737154
v -0.169823 -0.095270 -5.740909
v -0.169823 0.244730 -5.740909
v -0.145691 -0.095270 -5.743803
v -0.145691 0.244730 -5.743803
v -0.120802 -0.095270 -5.745852
v -0.120802 0.244730 -5.745852
v -0.095053 -0.095270 -5.747071
v -0.095053 0.244730 -5.747071
v -0.068340 -0.095270 -5.747474
v -0.068340 0.244730 -5.747474
v -0.005161 -0.095270 -5.744399
v -0.005161 0.244730 -5.744399
v 0.053925 -0.095270 -5.735332
v 0.053925 0.244730 -5.735332
v 0.108651 -0.095270 -5.720511
v 0.108651 0.244730 -5.720511
v 0.158749 -0.095270 -5.700173
v 0.158749 0.244730 -5.700173
v 0.203954 -0.095270 -5.674555
v 0.203954 0.244730 -5.674555
v 0.243997 -0.095270 -5.643895
v 0.243997 0.244730 -5.643895
v 0.278612 -0.095270 -5.608430
v 0.278612 0.244730 -5.608430
v 0.307532 -0.095270 -5.568397
v 0.307532 0.244730 -5.568397
v 0.330490 -0.095270 -5.524033
v 0.330490 0.244730 -5.524033
v 0.347219 -0.095270 -5.475575
v 0.347219 0.244730 -5.475575
v 0.357453 -0.095270 -5.423262
v 0.357453 0.244730 -5.423262
v 0.360923 -0.095270 -5.367330
v 0.360923 0.244730 -5.367330
v 0.359796 -0.095270 -5.328191
v 0.359796 0.244730 -5.328191
v 0.356355 -0.095270 -5.291811
v 0.356355 0.244730 -5.291811
v 0.350512 -0.095270 -5.258012
v 0.350512 0.244730 -5.258012
v 0.342177 -0.095270 -5.226615
v 0.342177 0.244730 -5.226615
v 0.331261 -0.095270 -5.197443
v 0.331261 0.244730 -5.197443
v 0.317676 -0.095270 -5.170317
v 0.317676 0.244730 -5.170317
v 0.301333 -0.095270 -5.145061
v 0.301333 0.244730 -5.145061
v 0.282142 -0.095270 -5.121494
v 0.282142 0.244730 -5.121494
v 0.260014 -0.095270 -5.099441
v 0.260014 0.244730 -5.099441
v 0.234861 -0.095270 -5.078722
v 0.234861 0.244730 -5.078722
v 0.206593 -0.095270 -5.059160
v 0.206593 0.244730 -5.059160
v 0.175122 -0.095270 -5.040577
v 0.175122 0.244730 -5.040577
v 0.209747 -0.095270 -5.027204
v 0.209747 0.244730 -5.027204
v 0.241050 -0.095270 -5.009758
v 0.241050 0.244730 -5.009758
v 0.269091 -0.095270 -4.988621
v 0.269091 0.244730 -4.988621
v 0.293927 -0.095270 -4.964169
v 0.293927 0.244730 -4.964169
v 0.315620 -0.095270 -4.936780
v 0.315620 0.244730 -4.936780
v 0.334228 -0.095270 -4.906833
v 0.334228 0.244730 -4.906833
v 0.349810 -0.095270 -4.874705
v 0.349810 0.244730 -4.874705
v 0.362426 -0.095270 -4.840776
v 0.362426 0.244730 -4.840776
v 0.372135 -0.095270 -4.805423
v 0.372135 0.244730 -4.805423
v 0.378997 -0.095270 -4.769025
v 0.378997 0.244730 -4.769025
v 0.383070 -0.095270 -4.731959
v 0.383070 0.244730 -4.731959
v 0.384415 -0.095270 -4.694603
v 0.384415 0.244730 -4.694603
v 0.380519 -0.095270 -4.631172
v 0.380519 0.244730 -4.631172
v 0.369090 -0.095270 -4.571389
v 0.369090 0.244730 -4.571389
v 0.350512 -0.095270 -4.515610
v 0.350512 0.244730 -4.515610
v 0.325171 -0.095270 -4.464192
v 0.325171 0.244730 -4.464192
v 0.293453 -0.095270 -4.417490
v 0.293453 0.244730 -4.417490
v 0.255743 -0.095270 -4.375859
v 0.255743 0.244730 -4.375859
v 0.212427 -0.095270 -4.339657
v 0.212427 0.244730 -4.339657
v 0.163891 -0.095270 -4.309239
v 0.163891 0.244730 -4.309239
v 0.110519 -0.095270 -4.284961
v 0.110519 0.244730 -4.284961
v 0.052699 -0.095270 -4.267179
v 0.052699 0.244730 -4.267179
v -0.009185 -0.095270 -4.256249
v -0.009185 0.244730 -4.256249
v -0.074747 -0.095270 -4.252526
v -0.074747 0.244730 -4.252526
v -0.099928 -0.095270 -4.253145
v -0.099928 0.244730 -4.253145
v -0.125271 -0.095270 -4.254988
v -0.125271 0.244730 -4.254988
v -0.150763 -0.095270 -4.258032
v -0.150763 0.244730 -4.258032
v -0.176388 -0.095270 -4.262255
v -0.176388 0.244730 -4.262255
v -0.202132 -0.095270 -4.267635
v -0.202132 0.244730 -4.267635
v -0.227979 -0.095270 -4.274149
v -0.227979 0.244730 -4.274149
v -0.253916 -0.095270 -4.281776
v -0.253916 0.244730 -4.281776
v -0.279927 -0.095270 -4.290493
v -0.279927 0.244730 -4.290493
v -0.305997 -0.095270 -4.300278
v -0.305997 0.244730 -4.300278
v -0.332112 -0.095270 -4.311108
v -0.332112 0.244730 -4.311108
v -0.358256 -0.095270 -4.322962
v -0.358256 0.244730 -4.322962
v -0.384415 -0.095270 -4.335816
v -0.384415 0.244730 -4.335816
v -0.384415 -0.095270 -4.562194
v -0.384415 0.244730 -4.562194
v -0.356738 -0.095270 -4.544307
v -0.356738 0.244730 -4.544307
v -0.329225 -0.095270 -4.528014
v -0.329225 0.244730 -4.528014
v -0.301859 -0.095270 -4.513308
v -0.301859 0.244730 -4.513308
v -0.274627 -0.095270 -4.500181
v -0.274627 0.244730 -4.500181
v -0.247514 -0.095270 -4.488627
v -0.247514 0.244730 -4.488627
v -0.220505 -0.095270 -4.478637
v -0.220505 0.244730 -4.478637
v -0.193584 -0.095270 -4.470204
v -0.193584 0.244730 -4.470204
v -0.166738 -0.095270 -4.463322
v -0.166738 0.244730 -4.463322
v -0.139951 -0.095270 -4.457982
v -0.139951 0.244730 -4.457982
v -0.113209 -0.095270 -4.454176
v -0.113209 0.244730 -4.454176
v -0.086496 -0.095270 -4.451898
v -0.086496 0.244730 -4.451898
v -0.059798 -0.095270 -4.451140
v -0.059798 0.244730 -4.451140
v -0.025117 -0.095270 -4.453029
v -0.025117 0.244730 -4.453029
v 0.007287 -0.095270 -4.458596
v 0.007287 0.244730 -4.458596
v 0.037274 -0.095270 -4.467692
v 0.037274 0.244730 -4.467692
v 0.064702 -0.095270 -4.480170
v 0.064702 0.244730 -4.480170
v 0.089431 -0.095270 -4.495880
v 0.089431 0.244730 -4.495880
v 0.111320 -0.095270 -4.514676
v 0.111320 0.244730 -4.514676
v 0.130228 -0.095270 -4.536408
v 0.130228 0.244730 -4.536408
v 0.146014 -0.095270 -4.560928
v 0.146014 0.244730 -4.560928
v 0.158538 -0.095270 -4.588089
v 0.158538 0.244730 -4.588089
v 0.167658 -0.095270 -4.617740
v 0.167658 0.244730 -4.617740
v 0.173233 -0.095270 -4.649735
v 0.173233 0.244730 -4.649735
v 0.175122 -0.095270 -4.683925
v 0.175122 0.244730 -4.683925
v 0.172943 -0.095270 -4.718978
v 0.172943 0.244730 -4.718978
v 0.166412 -0.095270 -4.752385
v 0.166412 0.244730 -4.752385
v 0.155535 -0.095270 -4.783833
v 0.155535 0.244730 -4.783833
v 0.140319 -0.095270 -4.813013
v 0.140319 0.244730 -4.813013
v 0.120774 -0.095270 -4.839612
v 0.120774 0.244730 -4.839612
v 0.096905 -0.095270 -4.863319
v 0.096905 0.244730 -4.863319
v 0.068720 -0.095270 -4.883822
v 0.068720 0.244730 -4.883822
v 0.036227 -0.095270 -4.900811
v 0.036227 0.244730 -4.900811
v -0.000567 -0.095270 -4.913974
v -0.000567 0.244730 -4.913974
v -0.041655 -0.095270 -4.922998
v -0.041655 0.244730 -4.922998
v -0.087029 -0.095270 -4.927574
v -0.087029 0.244730 -4.927574
v -0.136681 -0.095270 -4.927388
v -0.136681 0.244730 -4.927388
v -0.136681 -0.095270 -5.119596
v -0.136681 0.244730 -5.119596
v -0.090631 -0.095270 -5.121227
v -0.090631 0.244730 -5.121227
v -0.048586 -0.095270 -5.126062
v -0.048586 0.244730 -5.126062
v -0.010545 -0.095270 -5.134011
v -0.010545 0.244730 -5.134011
v 0.023492 -0.095270 -5.144986
v 0.023492 0.244730 -5.144986
v 0.053524 -0.095270 -5.158897
v 0.053524 0.244730 -5.158897
v 0.079553 -0.095270 -5.175656
v 0.079553 0.244730 -5.175656
v 0.101576 -0.095270 -5.195174
v 0.101576 0.244730 -5.195174
v 0.119596 -0.095270 -5.217360
v 0.119596 0.244730 -5.217360
v 0.133611 -0.095270 -5.242128
v 0.133611 0.244730 -5.242128
v 0.143622 -0.095270 -5.269387
v 0.143622 0.244730 -5.269387
v 0.149628 -0.095270 -5.299049
v 0.149628 0.244730 -5.299049
v 0.151630 -0.095270 -5.331024
v 0.151630 0.244730 -5.331024
v 0.149608 -0.095270 -5.363574
v 0.149608 0.244730 -5.363574
v 0.143642 -0.095270 -5.393877
v 0.143642 0.244730 -5.393877
v 0.133878 -0.095270 -5.421822
v 0.133878 0.244730 -5.421822
v 0.120466 -0.095270 -5.447298
v 0.120466 0.244730 -5.447298
v 0.103554 -0.095270 -5.470193
v 0.103554 0.244730 -5.470193
v 0.083290 -0.095270 -5.490396
v 0.083290 0.244730 -5.490396
v 0.059823 -0.095270 -5.507796
v 0.059823 0.244730 -5.507796
v 0.033300 -0.095270 -5.522283
v 0.033300 0.244730 -5.522283
v 0.003871 -0.095270 -5.533743
v 0.003871 0.244730 -5.533743
v -0.028317 -0.095270 -5.542067
v -0.028317 0.244730 -5.542067
v -0.063115 -0.095270 -5.547143
v -0.063115 0.244730 -5.547143
v -0.100375 -0.095270 -5.548860
v -0.100375 0.244730 -5.548860
v -0.119932 -0.095270 -5.548497
v -0.119932 0.244730 -5.548497
v -0.139192 -0.095270 -5.547386
v -0.139192 0.244730 -5.547386
v -0.158304 -0.095270 -5.545489
v -0.158304 0.244730 -5.545489
v -0.177416 -0.095270 -5.542769
v -0.177416 0.244730 -5.542769
v -0.196677 -0.095270 -5.539188
v -0.196677 0.244730 -5.539188
v -0.216234 -0.095270 -5.534711
v -0.216234 0.244730 -5.534711
v -0.236235 -0.095270 -5.529299
v -0.236235 0.244730 -5.529299
v -0.256830 -0.095270 -5.522915
v -0.256830 0.244730 -5.522915
v -0.278167 -0.095270 -5.515523
v -0.278167 0.244730 -5.515523
v -0.300394 -0.095270 -5.507086
v -0.300394 0.244730 -5.507086
v -0.323658 -0.095270 -5.497566
v -0.323658 0.244730 -5.497566
v -0.348109 -0.095270 -5.486926
v -0.348109 0.244730 -5.486926
v -0.348109 -0.095270 -5.685540
v -0.348109 0.244730 -5.685540
vn -0.0000 1.0000 -0.0000
vn -0.0000 -1.0000 -0.0000
vn -0.4070 -0.0000 -0.9134
vn -0.3731 -0.0000 -0.9278
vn -0.3367 -0.0000 -0.9416
vn -0.2983 -0.0000 -0.9545
vn -0.2586 -0.0000 -0.9660
vn -0.2182 -0.0000 -0.9759
vn -0.1779 -0.0000 -0.9840
vn -0.1385 -0.0000 -0.9904
vn -0.1006 -0.0000 -0.9949
vn -0.0647 -0.0000 -0.9979
vn -0.0312 -0.0000 -0.9995
vn 0.0168 -0.0000 -0.9999
vn 0.1003 -0.0000 -0.9950
vn 0.2069 -0.0000 -0.9784
vn 0.3194 -0.0000 -0.9476
vn 0.4355 -0.0000 -0.9002
vn 0.5518 -0.0000 -0.8340
vn 0.6635 -0.0000 -0.7482
vn 0.7652 -0.0000 -0.6438
vn 0.8517 -0.0000 -0.5240
vn 0.9191 -0.0000 -0.3940
vn 0.9657 -0.0000 -0.2598
vn 0.9919 -0.0000 -0.1272
vn 0.9999 -0.0000 -0.0166
vn 0.9981 -0.0000 0.0615
vn 0.9912 -0.0000 0.1324
vn 0.9769 -0.0000 0.2137
vn 0.9527 -0.0000 0.3039
vn 0.9167 -0.0000 0.3997
vn 0.8682 -0.0000 0.4963
vn 0.8087 -0.0000 0.5882
vn 0.7417 -0.0000 0.6708
vn 0.6716 -0.0000 0.7409
vn 0.6029 -0.0000 0.7978
vn 0.5391 -0.0000 0.8422
vn 0.9966 -0.0000 -0.0823
vn 0.4246 -0.0000 -0.9054
vn 0.5457 -0.0000 -0.8380
vn 0.6532 -0.0000 -0.7572
vn 0.7442 -0.0000 -0.6680
vn 0.8180 -0.0000 -0.5753
vn 0.8758 -0.0000 -0.4827
vn 0.9196 -0.0000 -0.3929
vn 0.9517 -0.0000 -0.3070
vn 0.9743 -0.0000 -0.2252
vn 0.9891 -0.0000 -0.1474
vn 0.9974 -0.0000 -0.0727
vn 0.9999 -0.0000 0.0127
vn 0.9922 -0.0000 0.1248
vn 0.9676 -0.0000 0.2524
vn 0.9250 -0.0000 0.3799
vn 0.8642 -0.0000 0.5032
vn 0.7861 -0.0000 0.6181
vn 0.6929 -0.0000 0.7211
vn 0.5875 -0.0000 0.8092
vn 0.4736 -0.0000 0.8807
vn 0.3547 -0.0000 0.9350
vn 0.2344 -0.0000 0.9721
vn 0.1155 -0.0000 0.9933
vn 0.0161 -0.0000 0.9999
vn -0.0486 -0.0000 0.9988
vn -0.0956 -0.0000 0.9954
vn -0.1406 -0.0000 0.9901
vn -0.1836 -0.0000 0.9830
vn -0.2245 -0.0000 0.9745
vn -0.2633 -0.0000 0.9647
vn -0.3000 -0.0000 0.9539
vn -0.3346 -0.0000 0.9424
vn -0.3673 -0.0000 0.9301
vn -0.3981 -0.0000 0.9174
vn -0.4270 -0.0000 0.9042
vn -0.8488 -0.0000 0.5287
vn -0.4781 -0.0000 -0.8783
vn 0.5263 -0.0000 -0.8503
vn 0.4916 -0.0000 -0.8708
vn 0.4539 -0.0000 -0.8911
vn 0.4132 -0.0000 -0.9106
vn 0.3696 -0.0000 -0.9292
vn 0.3230 -0.0000 -0.9464
vn 0.2737 -0.0000 -0.9618
vn 0.2220 -0.0000 -0.9750
vn 0.1683 -0.0000 -0.9857
vn 0.1130 -0.0000 -0.9936
vn 0.0567 -0.0000 -0.9984
vn -0.0130 -0.0000 -0.9999
vn -0.1120 -0.0000 -0.9937
vn -0.2302 -0.0000 -0.9731
vn -0.3530 -0.0000 -0.9356
vn -0.4763 -0.0000 -0.8793
vn -0.5954 -0.0000 -0.8034
vn -0.7048 -0.0000 -0.7094
vn -0.7997 -0.0000 -0.6004
vn -0.8766 -0.0000 -0.4812
vn -0.9340 -0.0000 -0.3571
vn -0.9724 -0.0000 -0.2333
vn -0.9935 -0.0000 -0.1136
vn -1.0000 -0.0000 0.0034
vn -0.9919 -0.0000 0.1272
vn -0.9656 -0.0000 0.2600
vn -0.9184 -0.0000 0.3957
vn -0.8487 -0.0000 0.5288
vn -0.7575 -0.0000 0.6528
vn -0.6484 -0.0000 0.7613
vn -0.5272 -0.0000 0.8497
vn -0.4010 -0.0000 0.9161
vn -0.2762 -0.0000 0.9611
vn -0.1577 -0.0000 0.9875
vn -0.0484 -0.0000 0.9988
vn -0.7058 -0.0000 0.7084
vn -0.7195 -0.0000 -0.6945
vn -0.0749 -0.0000 -0.9972
vn -0.1596 -0.0000 -0.9872
vn -0.2561 -0.0000 -0.9667
vn -0.3643 -0.0000 -0.9313
vn -0.4820 -0.0000 -0.8762
vn -0.6041 -0.0000 -0.7969
vn -0.7222 -0.0000 -0.6917
vn -0.8262 -0.0000 -0.5634
vn -0.9075 -0.0000 -0.4200
vn -0.9622 -0.0000 -0.2724
vn -0.9914 -0.0000 -0.1308
vn -1.0000 -0.0000 -0.0002
vn -0.9918 -0.0000 0.1279
vn -0.9650 -0.0000 0.2622
vn -0.9170 -0.0000 0.3989
vn -0.8470 -0.0000 0.5315
vn -0.7573 -0.0000 0.6530
vn -0.6526 -0.0000 0.7577
vn -0.5388 -0.0000 0.8425
vn -0.4220 -0.0000 0.9066
vn -0.3072 -0.0000 0.9517
vn -0.1976 -0.0000 0.9803
vn -0.0953 -0.0000 0.9954
vn -0.0138 -0.0000 0.9999
vn 0.0381 -0.0000 0.9993
vn 0.0782 -0.0000 0.9969
vn 0.1199 -0.0000 0.9928
vn 0.1619 -0.0000 0.9868
vn 0.2030 -0.0000 0.9792
vn 0.2422 -0.0000 0.9702
vn 0.2787 -0.0000 0.9604
vn 0.3117 -0.0000 0.9502
vn 0.3412 -0.0000 0.9400
vn 0.3668 -0.0000 0.9303
vn 0.3889 -0.0000 0.9213
vn -0.5482 -0.0000 0.8364
vn -0.8436 -0.0000 -0.5370
vt 0.068493 0.000000
vt 0.082192 0.000000
vt 0.075342 0.000000
vt 0.061644 0.000000
vt 0.054795 0.000000
vt 0.089041 0.000000
vt 0.047945 0.000000
vt 0.041096 0.000000
vt 0.034247 0.000000
vt 0.095890 0.000000
vt 0.027397 0.000000
vt 0.020548 0.000000
vt 0.013699 0.000000
vt 0.102740 0.000000
vt 0.006849 0.000000
vt 0.000000 0.000000
vt 0.109589 0.000000
vt 1.000000 0.000000
vt 0.993151 0.000000
vt 0.986301 0.000000
vt 0.979452 0.000000
vt 0.972603 0.000000
vt 0.965753 0.000000
vt 0.958904 0.000000
vt 0.952055 0.000000
vt 0.116438 0.000000
vt 0.945205 0.000000
vt 0.938356 0.000000
vt 0.123288 0.000000
vt 0.931507 0.000000
vt 0.924658 0.000000
vt 0.917808 0.000000
vt 0.130137 0.000000
vt 0.910959 0.000000
vt 0.904110 0.000000
vt 0.136986 0.000000
vt 0.897260 0.000000
vt 0.890411 0.000000
vt 0.883562 0.000000
vt 0.143836 0.000000
vt 0.876712 0.000000
vt 0.869863 0.000000
vt 0.863014 0.000000
vt 0.150685 0.000000
vt 0.856164 0.000000
vt 0.849315 0.000000
vt 0.157534 0.000000
vt 0.842466 0.000000
vt 0.835616 0.000000
vt 0.164384 0.000000
vt 0.828767 0.000000
vt 0.821918 0.000000
vt 0.171233 0.000000
vt 0.815068 0.000000
vt 0.178082 0.000000
vt 0.808219 0.000000
vt 0.184932 0.000000
vt 0.801370 0.000000
vt 0.191781 0.000000
vt 0.794521 0.000000
vt 0.198630 0.000000
vt 0.787671 0.000000
vt 0.780822 0.000000
vt 0.205479 0.000000
vt 0.773973 0.000000
vt 0.212329 0.000000
vt 0.767123 0.000000
vt 0.760274 0.000000
vt 0.753425 0.000000
vt 0.219178 0.000000
vt 0.746575 0.000000
vt 0.739726 0.000000
vt 0.226027 0.000000
vt 0.232877 0.000000
vt 0.239726 0.000000
vt 0.246575 0.000000
vt 0.253425 0.000000
vt 0.260274 0.000000
vt 0.267123 0.000000
vt 0.273973 0.000000
vt 0.732877 0.000000
vt 0.280822 0.000000
vt 0.726027 0.000000
vt 0.719178 0.000000
vt 0.712329 0.000000
vt 0.287671 0.000000
vt 0.705479 0.000000
vt 0.698630 0.000000
vt 0.294521 0.000000
vt 0.691781 0.000000
vt 0.301370 0.000000
vt 0.684932 0.000000
vt 0.678082 0.000000
vt 0.308219 0.000000
vt 0.671233 0.000000
vt 0.315068 0.000000
vt 0.664384 0.000000
vt 0.321918 0.000000
vt 0.657534 0.000000
vt 0.328767 0.000000
vt 0.650685 0.000000
vt 0.643836 0.000000
vt 0.335616 0.000000
vt 0.636986 0.000000
vt 0.630137 0.000000
vt 0.342466 0.000000
vt 0.486301 0.000000
vt 0.500000 0.000000
vt 0.493151 0.000000
vt 0.623288 0.000000
vt 0.506849 0.000000
vt 0.616438 0.000000
vt 0.513699 0.000000
vt 0.349315 0.000000
vt 0.609589 0.000000
vt 0.520548 0.000000
vt 0.527397 0.000000
vt 0.602740 0.000000
vt 0.534247 0.000000
vt 0.595890 0.000000
vt 0.541096 0.000000
vt 0.547945 0.000000
vt 0.589041 0.000000
vt 0.356164 0.000000
vt 0.554795 0.000000
vt 0.582192 0.000000
vt 0.561644 0.000000
vt 0.568493 0.000000
vt 0.575342 0.000000
vt 0.363014 0.000000
vt 0.369863 0.000000
vt 0.376712 0.000000
vt 0.479452 0.000000
vt 0.472603 0.000000
vt 0.465753 0.000000
vt 0.383562 0.000000
vt 0.458904 0.000000
vt 0.452055 0.000000
vt 0.390411 0.000000
vt 0.445205 0.000000
vt 0.438356 0.000000
vt 0.431507 0.000000
vt 0.397260 0.000000
vt 0.424658 0.000000
vt 0.417808 0.000000
vt 0.404110 0.000000
vt 0.410959 0.000000
vt 0.000000 1.000000
vt 0.006803 1.000000
vt 0.006803 0.000000
vt 0.013605 1.000000
vt 0.013605 0.000000
vt 0.020408 1.000000
vt 0.020408 0.000000
vt 0.027211 1.000000
vt 0.027211 0.000000
vt 0.034014 1.000000
vt 0.034014 0.000000
vt 0.040816 1.000000
vt 0.040816 0.000000
vt 0.047619 1.000000
vt 0.047619 0.000000
vt 0.054422 1.000000
vt 0.054422 0.000000
vt 0.061224 1.000000
vt 0.061224 0.000000
vt 0.068027 1.000000
vt 0.068027 0.000000
vt 0.074830 1.000000
vt 0.074830 0.000000
vt 0.081633 1.000000
vt 0.081633 0.000000
vt 0.088435 1.000000
vt 0.088435 0.000000
vt 0.095238 1.000000
vt 0.095238 0.000000
vt 0.102041 1.000000
vt 0.102041 0.000000
vt 0.108844 1.000000
vt 0.108844 0.000000
vt 0.115646 1.000000
vt 0.115646 0.000000
vt 0.122449 1.000000
vt 0.122449 0.000000
vt 0.129252 1.000000
vt 0.129252 0.000000
vt 0.136054 1.000000
vt 0.136054 0.000000
vt 0.142857 1.000000
vt 0.142857 0.000000
vt 0.149660 1.000000
vt 0.149660 0.000000
vt 0.156463 1.000000
vt 0.156463 0.000000
vt 0.163265 1.000000
vt 0.163265 0.000000
vt 0.170068 1.000000
vt 0.170068 0.000000
vt 0.176871 1.000000
vt 0.176871 0.000000
vt 0.183673 1.000000
vt 0.183673 0.000000
vt 0.190476 1.000000
vt 0.190476 0.000000
vt 0.197279 1.000000
vt 0.197279 0.000000
vt 0.204082 1.000000
vt 0.204082 0.000000
vt 0.210884 1.000000
vt 0.210884 0.000000
vt 0.217687 1.000000
vt 0.217687 0.000000
vt 0.224490 1.000000
vt 0.224490 0.000000
vt 0.231293 1.000000
vt 0.231293 0.000000
vt 0.238095 1.000000
vt 0.238095 0.000000
vt 0.244898 1.000000
vt 0.244898 0.000000
vt 0.251701 1.000000
vt 0.251701 0.000000
vt 0.258503 1.000000
vt 0.258503 0.000000
vt 0.265306 1.000000
vt 0.265306 0.000000
vt 0.272109 1.000000
vt 0.272109 0.000000
vt 0.278912 1.000000
vt 0.278912 0.000000
vt 0.285714 1.000000
vt 0.285714 0.000000
vt 0.292517 1.000000
vt 0.292517 0.000000
vt 0.299320 1.000000
vt 0.299320 0.000000
vt 0.306122 1.000000
vt 0.306122 0.000000
vt 0.312925 1.000000
vt 0.312925 0.000000
vt 0.319728 1.000000
vt 0.319728 0.000000
vt 0.326531 1.000000
vt 0.326531 0.000000
vt 0.333333 1.000000
vt 0.333333 0.000000
vt 0.340136 1.000000
vt 0.340136 0.000000
vt 0.346939 1.000000
vt 0.346939 0.000000
vt 0.353741 1.000000
vt 0.353741 0.000000
vt 0.360544 1.000000
vt 0.360544 0.000000
vt 0.367347 1.000000
vt 0.367347 0.000000
vt 0.374150 1.000000
vt 0.374150 0.000000
vt 0.380952 1.000000
vt 0.380952 0.000000
vt 0.387755 1.000000
vt 0.387755 0.000000
vt 0.394558 1.000000
vt 0.394558 0.000000
vt 0.401361 1.000000
vt 0.401361 0.000000
vt 0.408163 1.000000
vt 0.408163 0.000000
vt 0.414966 1.000000
vt 0.414966 0.000000
vt 0.421769 1.000000
vt 0.421769 0.000000
vt 0.428571 1.000000
vt 0.428571 0.000000
vt 0.435374 1.000000
vt 0.435374 0.000000
vt 0.442177 1.000000
vt 0.442177 0.000000
vt 0.448980 1.000000
vt 0.448980 0.000000
vt 0.455782 1.000000
vt 0.455782 0.000000
vt 0.462585 1.000000
vt 0.462585 0.000000
vt 0.469388 1.000000
vt 0.469388 0.000000
vt 0.476190 1.000000
vt 0.476190 0.000000
vt 0.482993 1.000000
vt 0.482993 0.000000
vt 0.489796 1.000000
vt 0.489796 0.000000
vt 0.496599 1.000000
vt 0.496599 0.000000
vt 0.503401 1.000000
vt 0.503401 0.000000
vt 0.510204 1.000000
vt 0.510204 0.000000
vt 0.517007 1.000000
vt 0.517007 0.000000
vt 0.523810 1.000000
vt 0.523810 0.000000
vt 0.530612 1.000000
vt 0.530612 0.000000
vt 0.537415 1.000000
vt 0.537415 0.000000
vt 0.544218 1.000000
vt 0.544218 0.000000
vt 0.551020 1.000000
vt 0.551020 0.000000
vt 0.557823 1.000000
vt 0.557823 0.000000
vt 0.564626 1.000000
vt 0.564626 0.000000
vt 0.571429 1.000000
vt 0.571429 0.000000
vt 0.578231 1.000000
vt 0.578231 0.000000
vt 0.585034 1.000000
vt 0.585034 0.000000
vt 0.591837 1.000000
vt 0.591837 0.000000
vt 0.598639 1.000000
vt 0.598639 0.000000
vt 0.605442 1.000000
vt 0.605442 0.000000
vt 0.612245 1.000000
vt 0.612245 0.000000
vt 0.619048 1.000000
vt 0.619048 0.000000
vt 0.625850 1.000000
vt 0.625850 0.000000
vt 0.632653 1.000000
vt 0.632653 0.000000
vt 0.639456 1.000000
vt 0.639456 0.000000
vt 0.646259 1.000000
vt 0.646259 0.000000
vt 0.653061 1.000000
vt 0.653061 0.000000
vt 0.659864 1.000000
vt 0.659864 0.000000
vt 0.666667 1.000000
vt 0.666667 0.000000
vt 0.673469 1.000000
vt 0.673469 0.000000
vt 0.680272 1.000000
vt 0.680272 0.000000
vt 0.687075 1.000000
vt 0.687075 0.000000
vt 0.693878 1.000000
vt 0.693878 0.000000
vt 0.700680 1.000000
vt 0.700680 0.000000
vt 0.707483 1.000000
vt 0.707483 0.000000
vt 0.714286 1.000000
vt 0.714286 0.000000
vt 0.721088 1.000000
vt 0.721088 0.000000
vt 0.727891 1.000000
vt 0.727891 0.000000
vt 0.734694 1.000000
vt 0.734694 0.000000
vt 0.741497 1.000000
vt 0.741497 0.000000
vt 0.748299 1.000000
vt 0.748299 0.000000
vt 0.755102 1.000000
vt 0.755102 0.000000
vt 0.761905 1.000000
vt 0.761905 0.000000
vt 0.768707 1.000000
vt 0.768707 0.000000
vt 0.775510 1.000000
vt 0.775510 0.000000
vt 0.782313 1.000000
vt 0.782313 0.000000
vt 0.789116 1.000000
vt 0.789116 0.000000
vt 0.795918 1.000000
vt 0.795918 0.000000
vt 0.802721 1.000000
vt 0.802721 0.000000
vt 0.809524 1.000000
vt 0.809524 0.000000
vt 0.816327 1.000000
vt 0.816327 0.000000
vt 0.823129 1.000000
vt 0.823129 0.000000
vt 0.829932 1.000000
vt 0.829932 0.000000
vt 0.836735 1.000000
vt 0.836735 0.000000
vt 0.843537 1.000000
vt 0.843537 0.000000
vt 0.850340 1.000000
vt 0.850340 0.000000
vt 0.857143 1.000000
vt 0.857143 0.000000
vt 0.863946 1.000000
vt 0.863946 0.000000
vt 0.870748 1.000000
vt 0.870748 0.000000
vt 0.877551 1.000000
vt 0.877551 0.000000
vt 0.884354 1.000000
vt 0.884354 0.000000
vt 0.891156 1.000000
vt 0.891156 0.000000
vt 0.897959 1.000000
vt 0.897959 0.000000
vt 0.904762 1.000000
vt 0.904762 0.000000
vt 0.911565 1.000000
vt 0.911565 0.000000
vt 0.918367 1.000000
vt 0.918367 0.000000
vt 0.925170 1.000000
vt 0.925170 0.000000
vt 0.931973 1.000000
vt 0.931973 0.000000
vt 0.938776 1.000000
vt 0.938776 0.000000
vt 0.945578 1.000000
vt 0.945578 0.000000
vt 0.952381 1.000000
vt 0.952381 0.000000
vt 0.959184 1.000000
vt 0.959184 0.000000
vt 0.965986 1.000000
vt 0.965986 0.000000
vt 0.972789 1.000000
vt 0.972789 0.000000
vt 0.979592 1.000000
vt 0.979592 0.000000
vt 0.986395 1.000000
vt 0.986395 0.000000
vt 0.993197 1.000000
vt 0.993197 0.000000
vt 1.000000 1.000000
s 0
usemtl Material.001
f 139/173/67 141/174/67 140/175/67
f 138/176/67 141/174/67 139/173/67
f 137/177/67 141/174/67 138/176/67
f 137/177/67 142/178/67 141/174/67
f 136/179/67 142/178/67 137/177/67
f 135/180/67 142/178/67 136/179/67
f 134/181/67 142/178/67 135/180/67
f 134/181/67 143/182/67 142/178/67
f 133/183/67 143/182/67 134/181/67
f 132/184/67 143/182/67 133/183/67
f 131/185/67 143/182/67 132/184/67
f 131/185/67 144/186/67 143/182/67
f 130/187/67 144/186/67 131/185/67
f 129/188/67 144/186/67 130/187/67
f 129/188/67 145/189/67 144/186/67
f 275/190/67 145/189/67 129/188/67
f 274/191/67 273/192/67 275/190/67
f 273/192/67 272/193/67 275/190/67
f 272/193/67 271/194/67 275/190/67
f 271/194/67 270/195/67 275/190/67
f 270/195/67 145/189/67 275/190/67
f 270/195/67 269/196/67 145/189/67
f 269/196/67 268/197/67 145/189/67
f 268/197/67 146/198/67 145/189/67
f 268/197/67 267/199/67 146/198/67
f 267/199/67 266/200/67 146/198/67
f 266/200/67 147/201/67 146/198/67
f 266/200/67 265/202/67 147/201/67
f 265/202/67 264/203/67 147/201/67
f 264/203/67 263/204/67 147/201/67
f 263/204/67 148/205/67 147/201/67
f 263/204/67 262/206/67 148/205/67
f 262/206/67 261/207/67 148/205/67
f 261/207/67 149/208/67 148/205/67
f 260/209/67 149/208/67 261/207/67
f 259/210/67 149/208/67 260/209/67
f 258/211/67 149/208/67 259/210/67
f 258/211/67 150/212/67 149/208/67
f 257/213/67 150/212/67 258/211/67
f 256/214/67 150/212/67 257/213/67
f 255/215/67 150/212/67 256/214/67
f 255/215/67 151/216/67 150/212/67
f 254/217/67 151/216/67 255/215/67
f 253/218/67 151/216/67 254/217/67
f 253/218/67 152/219/67 151/216/67
f 252/220/67 152/219/67 253/218/67
f 251/221/67 152/219/67 252/220/67
f 251/221/67 153/222/67 152/219/67
f 250/223/67 153/222/67 251/221/67
f 249/224/67 153/222/67 250/223/67
f 249/224/67 154/225/67 153/222/67
f 248/226/67 154/225/67 249/224/67
f 248/226/67 155/227/67 154/225/67
f 247/228/67 155/227/67 248/226/67
f 247/228/67 156/229/67 155/227/67
f 246/230/67 156/229/67 247/228/67
f 246/230/67 157/231/67 156/229/67
f 245/232/67 157/231/67 246/230/67
f 245/232/67 158/233/67 157/231/67
f 244/234/67 158/233/67 245/232/67
f 243/235/67 158/233/67 244/234/67
f 243/235/67 159/236/67 158/233/67
f 242/237/67 159/236/67 243/235/67
f 242/237/67 160/238/67 159/236/67
f 241/239/67 160/238/67 242/237/67
f 240/240/67 160/238/67 241/239/67
f 239/241/67 160/238/67 240/240/67
f 239/241/67 161/242/67 160/238/67
f 238/243/67 161/242/67 239/241/67
f 237/244/67 161/242/67 238/243/67
f 237/244/67 162/245/67 161/242/67
f 237/244/67 163/246/67 162/245/67
f 237/244/67 164/247/67 163/246/67
f 237/244/67 165/248/67 164/247/67
f 237/244/67 166/249/67 165/248/67
f 237/244/67 167/250/67 166/249/67
f 237/244/67 168/251/67 167/250/67
f 237/244/67 169/252/67 168/251/67
f 237/244/67 236/253/67 169/252/67
f 236/253/67 170/254/67 169/252/67
f 235/255/67 170/254/67 236/253/67
f 234/256/67 170/254/67 235/255/67
f 233/257/67 170/254/67 234/256/67
f 233/257/67 171/258/67 170/254/67
f 232/259/67 171/258/67 233/257/67
f 231/260/67 171/258/67 232/259/67
f 231/260/67 172/261/67 171/258/67
f 230/262/67 172/261/67 231/260/67
f 230/262/67 173/263/67 172/261/67
f 229/264/67 173/263/67 230/262/67
f 228/265/67 173/263/67 229/264/67
f 228/265/67 174/266/67 173/263/67
f 227/267/67 174/266/67 228/265/67
f 227/267/67 175/268/67 174/266/67
f 226/269/67 175/268/67 227/267/67
f 226/269/67 176/270/67 175/268/67
f 225/271/67 176/270/67 226/269/67
f 225/271/67 177/272/67 176/270/67
f 224/273/67 177/272/67 225/271/67
f 223/274/67 177/272/67 224/273/67
f 223/274/67 178/275/67 177/272/67
f 222/276/67 178/275/67 223/274/67
f 221/277/67 178/275/67 222/276/67
f 221/277/67 179/278/67 178/275/67
f 200/279/67 202/280/67 201/281/67
f 220/282/67 179/278/67 221/277/67
f 200/279/67 203/283/67 202/280/67
f 219/284/67 179/278/67 220/282/67
f 200/279/67 204/285/67 203/283/67
f 219/284/67 180/286/67 179/278/67
f 218/287/67 180/286/67 219/284/67
f 200/279/67 205/288/67 204/285/67
f 200/279/67 206/289/67 205/288/67
f 217/290/67 180/286/67 218/287/67
f 200/279/67 207/291/67 206/289/67
f 216/292/67 180/286/67 217/290/67
f 200/279/67 208/293/67 207/291/67
f 200/279/67 209/294/67 208/293/67
f 215/295/67 180/286/67 216/292/67
f 215/295/67 181/296/67 180/286/67
f 200/279/67 210/297/67 209/294/67
f 214/298/67 181/296/67 215/295/67
f 200/279/67 211/299/67 210/297/67
f 200/279/67 212/300/67 211/299/67
f 213/301/67 181/296/67 214/298/67
f 200/279/67 213/301/67 212/300/67
f 200/279/67 181/296/67 213/301/67
f 200/279/67 182/302/67 181/296/67
f 200/279/67 183/303/67 182/302/67
f 200/279/67 184/304/67 183/303/67
f 199/305/67 184/304/67 200/279/67
f 198/306/67 184/304/67 199/305/67
f 197/307/67 184/304/67 198/306/67
f 197/307/67 185/308/67 184/304/67
f 196/309/67 185/308/67 197/307/67
f 195/310/67 185/308/67 196/309/67
f 195/310/67 186/311/67 185/308/67
f 194/312/67 186/311/67 195/310/67
f 193/313/67 186/311/67 194/312/67
f 192/314/67 186/311/67 193/313/67
f 192/314/67 187/315/67 186/311/67
f 191/316/67 187/315/67 192/314/67
f 190/317/67 187/315/67 191/316/67
f 190/317/67 188/318/67 187/315/67
f 189/319/67 188/318/67 190/317/67
f 286/173/68 287/175/68 288/174/68
f 285/176/68 286/173/68 288/174/68
f 284/177/68 285/176/68 288/174/68
f 284/177/68 288/174/68 289/178/68
f 283/179/68 284/177/68 289/178/68
f 282/180/68 283/179/68 289/178/68
f 281/181/68 282/180/68 289/178/68
f 281/181/68 289/178/68 290/182/68
f 280/183/68 281/181/68 290/182/68
f 279/184/68 280/183/68 290/182/68
f 278/185/68 279/184/68 290/182/68
f 278/185/68 290/182/68 291/186/68
f 277/187/68 278/185/68 291/186/68
f 276/188/68 277/187/68 291/186/68
f 276/188/68 291/186/68 292/189/68
f 422/190/68 276/188/68 292/189/68
f 421/191/68 422/190/68 420/192/68
f 420/192/68 422/190/68 419/193/68
f 419/193/68 422/190/68 418/194/68
f 418/194/68 422/190/68 417/195/68
f 417/195/68 422/190/68 292/189/68
f 417/195/68 292/189/68 416/196/68
f 416/196/68 292/189/68 415/197/68
f 415/197/68 292/189/68 293/198/68
f 415/197/68 293/198/68 414/199/68
f 414/199/68 293/198/68 413/200/68
f 413/200/68 293/198/68 294/201/68
f 413/200/68 294/201/68 412/202/68
f 412/202/68 294/201/68 411/203/68
f 411/203/68 294/201/68 410/204/68
f 410/204/68 294/201/68 295/205/68
f 410/204/68 295/205/68 409/206/68
f 409/206/68 295/205/68 408/207/68
f 408/207/68 295/205/68 296/208/68
f 407/209/68 408/207/68 296/208/68
f 406/210/68 407/209/68 296/208/68
f 405/211/68 406/210/68 296/208/68
f 405/211/68 296/208/68 297/212/68
f 404/213/68 405/211/68 297/212/68
f 403/214/68 404/213/68 297/212/68
f 402/215/68 403/214/68 297/212/68
f 402/215/68 297/212/68 298/216/68
f 401/217/68 402/215/68 298/216/68
f 400/218/68 401/217/68 298/216/68
f 400/218/68 298/216/68 299/219/68
f 399/220/68 400/218/68 299/219/68
f 398/221/68 399/220/68 299/219/68
f 398/221/68 299/219/68 300/222/68
f 397/223/68 398/221/68 300/222/68
f 396/224/68 397/223/68 300/222/68
f 396/224/68 300/222/68 301/225/68
f 395/226/68 396/224/68 301/225/68
f 395/226/68 301/225/68 302/227/68
f 394/228/68 395/226/68 302/227/68
f 394/228/68 302/227/68 303/229/68
f 393/230/68 394/228/68 303/229/68
f 393/230/68 303/229/68 304/231/68
f 392/232/68 393/230/68 304/231/68
f 392/232/68 304/231/68 305/233/68
f 391/234/68 392/232/68 305/233/68
f 390/235/68 391/234/68 305/233/68
f 390/235/68 305/233/68 306/236/68
f 389/237/68 390/235/68 306/236/68
f 389/237/68 306/236/68 307/238/68
f 388/239/68 389/237/68 307/238/68
f 387/240/68 388/239/68 307/238/68
f 386/241/68 387/240/68 307/238/68
f 386/241/68 307/238/68 308/242/68
f 385/243/68 386/241/68 308/242/68
f 384/244/68 385/243/68 308/242/68
f 384/244/68 308/242/68 309/245/68
f 384/244/68 309/245/68 310/246/68
f 384/244/68 310/246/68 311/247/68
f 384/244/68 311/247/68 312/248/68
f 384/244/68 312/248/68 313/249/68
f 384/244/68 313/249/68 314/250/68
f 384/244/68 314/250/68 315/251/68
f 384/244/68 315/251/68 316/252/68
f 384/244/68 316/252/68 383/253/68
f 383/253/68 316/252/68 317/254/68
f 382/255/68 383/253/68 317/254/68
f 381/256/68 382/255/68 317/254/68
f 380/257/68 381/256/68 317/254/68
f 380/257/68 317/254/68 318/258/68
f 379/259/68 380/257/68 318/258/68
f 378/260/68 379/259/68 318/258/68
f 378/260/68 318/258/68 319/261/68
f 377/262/68 378/260/68 319/261/68
f 377/262/68 319/261/68 320/263/68
f 376/264/68 377/262/68 320/263/68
f 375/265/68 376/264/68 320/263/68
f 375/265/68 320/263/68 321/266/68
f 374/267/68 375/265/68 321/266/68
f 374/267/68 321/266/68 322/268/68
f 373/269/68 374/267/68 322/268/68
f 373/269/68 322/268/68 323/270/68
f 372/271/68 373/269/68 323/270/68
f 372/271/68 323/270/68 324/272/68
f 371/273/68 372/271/68 324/272/68
f 370/274/68 371/273/68 324/272/68
f 370/274/68 324/272/68 325/275/68
f 369/276/68 370/274/68 325/275/68
f 368/277/68 369/276/68 325/275/68
f 368/277/68 325/275/68 326/278/68
f 347/279/68 348/281/68 349/280/68
f 367/282/68 368/277/68 326/278/68
f 347/279/68 349/280/68 350/283/68
f 366/284/68 367/282/68 326/278/68
f 347/279/68 350/283/68 351/285/68
f 366/284/68 326/278/68 327/286/68
f 365/287/68 366/284/68 327/286/68
f 347/279/68 351/285/68 352/288/68
f 347/279/68 352/288/68 353/289/68
f 364/290/68 365/287/68 327/286/68
f 347/279/68 353/289/68 354/291/68
f 363/292/68 364/290/68 327/286/68
f 347/279/68 354/291/68 355/293/68
f 347/279/68 355/293/68 356/294/68
f 362/295/68 363/292/68 327/286/68
f 362/295/68 327/286/68 328/296/68
f 347/279/68 356/294/68 357/297/68
f 361/298/68 362/295/68 328/296/68
f 347/279/68 357/297/68 358/299/68
f 347/279/68 358/299/68 359/300/68
f 360/301/68 361/298/68 328/296/68
f 347/279/68 359/300/68 360/301/68
f 347/279/68 360/301/68 328/296/68
f 347/279/68 328/296/68 329/302/68
f 347/279/68 329/302/68 330/303/68
f 347/279/68 330/303/68 331/304/68
f 346/305/68 347/279/68 331/304/68
f 345/306/68 346/305/68 331/304/68
f 344/307/68 345/306/68 331/304/68
f 344/307/68 331/304/68 332/308/68
f 343/309/68 344/307/68 332/308/68
f 342/310/68 343/309/68 332/308/68
f 342/310/68 332/308/68 333/311/68
f 341/312/68 342/310/68 333/311/68
f 340/313/68 341/312/68 333/311/68
f 339/314/68 340/313/68 333/311/68
f 339/314/68 333/311/68 334/315/68
f 338/316/68 339/314/68 334/315/68
f 337/317/68 338/316/68 334/315/68
f 337/317/68 334/315/68 335/318/68
f 336/319/68 337/317/68 335/318/68
s 1
f 424/320/69 426/321/70 425/322/70 423/188/69
f 426/321/70 428/323/71 427/324/71 425/322/70
f 428/323/71 430/325/72 429/326/72 427/324/71
f 430/325/72 432/327/73 431/328/73 429/326/72
f 432/327/73 434/329/74 433/330/74 431/328/73
f 434/329/74 436/331/75 435/332/75 433/330/74
f 436/331/75 438/333/76 437/334/76 435/332/75
f 438/333/76 440/335/77 439/336/77 437/334/76
f 440/335/77 442/337/78 441/338/78 439/336/77
f 442/337/78 444/339/79 443/340/79 441/338/78
f 444/339/79 446/341/80 445/342/80 443/340/79
f 446/341/80 448/343/81 447/344/81 445/342/80
f 448/343/81 450/345/82 449/346/82 447/344/81
f 450/345/82 452/347/83 451/348/83 449/346/82
f 452/347/83 454/349/84 453/350/84 451/348/83
f 454/349/84 456/351/85 455/352/85 453/350/84
f 456/351/85 458/353/86 457/354/86 455/352/85
f 458/353/86 460/355/87 459/356/87 457/354/86
f 460/355/87 462/357/88 461/358/88 459/356/87
f 462/357/88 464/359/89 463/360/89 461/358/88
f 464/359/89 466/361/90 465/362/90 463/360/89
f 466/361/90 468/363/91 467/364/91 465/362/90
f 468/363/91 470/365/92 469/366/92 467/364/91
f 470/365/92 472/367/93 471/368/93 469/366/92
f 472/367/93 474/369/94 473/370/94 471/368/93
f 474/369/94 476/371/95 475/372/95 473/370/94
f 476/371/95 478/373/96 477/374/96 475/372/95
f 478/373/96 480/375/97 479/376/97 477/374/96
f 480/375/97 482/377/98 481/378/98 479/376/97
f 482/377/98 484/379/99 483/380/99 481/378/98
f 484/379/99 486/381/100 485/382/100 483/380/99
f 486/381/100 488/383/101 487/384/101 485/382/100
f 488/383/101 490/385/102 489/386/102 487/384/101
f 490/385/102 492/387/103 491/388/103 489/386/102
f 492/387/103 494/389/104 493/390/104 491/388/103
f 494/389/104 496/391/105 495/392/105 493/390/104
f 496/391/105 498/393/106 497/394/106 495/392/105
f 498/393/106 500/395/107 499/396/107 497/394/106
f 500/395/107 502/397/108 501/398/108 499/396/107
f 502/397/108 504/399/109 503/400/109 501/398/108
f 504/399/109 506/401/110 505/402/110 503/400/109
f 506/401/110 508/403/111 507/404/111 505/402/110
f 508/403/111 510/405/112 509/406/112 507/404/111
f 510/405/112 512/407/113 511/408/113 509/406/112
f 512/407/113 514/409/114 513/410/114 511/408/113
f 514/409/114 516/411/115 515/412/115 513/410/114
f 516/411/115 518/413/116 517/414/116 515/412/115
f 518/413/116 520/415/117 519/416/117 517/414/116
f 520/415/117 522/417/118 521/418/118 519/416/117
f 522/417/118 524/419/119 523/420/119 521/418/118
f 524/419/119 526/421/120 525/422/120 523/420/119
f 526/421/120 528/423/121 527/424/121 525/422/120
f 528/423/121 530/425/122 529/426/122 527/424/121
f 530/425/122 532/427/123 531/428/123 529/426/122
f 532/427/123 534/429/124 533/430/124 531/428/123
f 534/429/124 536/431/125 535/432/125 533/430/124
f 536/431/125 538/433/126 537/434/126 535/432/125
f 538/433/126 540/435/127 539/436/127 537/434/126
f 540/435/127 542/437/128 541/438/128 539/436/127
f 542/437/128 544/439/129 543/440/129 541/438/128
f 544/439/129 546/441/130 545/442/130 543/440/129
f 546/441/130 548/443/131 547/444/131 545/442/130
f 548/443/131 550/445/132 549/446/132 547/444/131
f 550/445/132 552/447/133 551/448/133 549/446/132
f 552/447/133 554/449/134 553/450/134 551/448/133
f 554/449/134 556/451/135 555/452/135 553/450/134
f 556/451/135 558/453/136 557/454/136 555/452/135
f 558/453/136 560/455/137 559/456/137 557/454/136
f 560/455/137 562/457/138 561/458/138 559/456/137
f 562/457/138 564/459/139 563/460/139 561/458/138
f 564/459/139 566/461/140 565/462/140 563/460/139
f 566/461/140 568/463/141 567/464/141 565/462/140
f 568/463/141 570/465/142 569/466/142 567/464/141
f 570/465/142 572/467/143 571/468/143 569/466/142
f 572/467/143 574/469/144 573/470/144 571/468/143
f 574/469/144 576/471/145 575/472/145 573/470/144
f 576/471/145 578/473/146 577/474/146 575/472/145
f 578/473/146 580/475/147 579/476/147 577/474/146
f 580/475/147 582/477/148 581/478/148 579/476/147
f 582/477/148 584/479/149 583/480/149 581/478/148
f 584/479/149 586/481/150 585/482/150 583/480/149
f 586/481/150 588/483/151 587/484/151 585/482/150
f 588/483/151 590/485/152 589/486/152 587/484/151
f 590/485/152 592/487/153 591/488/153 589/486/152
f 592/487/153 594/489/154 593/490/154 591/488/153
f 594/489/154 596/491/155 595/492/155 593/490/154
f 596/491/155 598/493/156 597/494/156 595/492/155
f 598/493/156 600/495/157 599/496/157 597/494/156
f 600/495/157 602/497/158 601/498/158 599/496/157
f 602/497/158 604/499/159 603/500/159 601/498/158
f 604/499/159 606/501/160 605/502/160 603/500/159
f 606/501/160 608/503/161 607/504/161 605/502/160
f 608/503/161 610/505/162 609/506/162 607/504/161
f 610/505/162 612/507/163 611/508/163 609/506/162
f 612/507/163 614/509/164 613/510/164 611/508/163
f 614/509/164 616/511/165 615/512/165 613/510/164
f 616/511/165 618/513/166 617/514/166 615/512/165
f 618/513/166 620/515/167 619/516/167 617/514/166
f 620/515/167 622/517/168 621/518/168 619/516/167
f 622/517/168 624/519/169 623/520/169 621/518/168
f 624/519/169 626/521/170 625/522/170 623/520/169
f 626/521/170 628/523/171 627/524/171 625/522/170
f 628/523/171 630/525/172 629/526/172 627/524/171
f 630/525/172 632/527/173 631/528/173 629/526/172
f 632/527/173 634/529/174 633/530/174 631/528/173
f 634/529/174 636/531/175 635/532/175 633/530/174
f 636/531/175 638/533/176 637/534/176 635/532/175
f 638/533/176 640/535/177 639/536/177 637/534/176
f 640/535/177 642/537/178 641/538/178 639/536/177
f 642/537/178 644/539/179 643/540/179 641/538/178
f 644/539/179 646/541/180 645/542/180 643/540/179
f 646/541/180 648/543/181 647/544/181 645/542/180
f 648/543/181 650/545/182 649/546/182 647/544/181
f 650/545/182 652/547/183 651/548/183 649/546/182
f 652/547/183 654/549/184 653/550/184 651/548/183
f 654/549/184 656/551/185 655/552/185 653/550/184
f 656/551/185 658/553/186 657/554/186 655/552/185
f 658/553/186 660/555/187 659/556/187 657/554/186
f 660/555/187 662/557/188 661/558/188 659/556/187
f 662/557/188 664/559/189 663/560/189 661/558/188
f 664/559/189 666/561/190 665/562/190 663/560/189
f 666/561/190 668/563/191 667/564/191 665/562/190
f 668/563/191 670/565/192 669/566/192 667/564/191
f 670/565/192 672/567/193 671/568/193 669/566/192
f 672/567/193 674/569/194 673/570/194 671/568/193
f 674/569/194 676/571/195 675/572/195 673/570/194
f 676/571/195 678/573/196 677/574/196 675/572/195
f 678/573/196 680/575/197 679/576/197 677/574/196
f 680/575/197 682/577/198 681/578/198 679/576/197
f 682/577/198 684/579/199 683/580/199 681/578/198
f 684/579/199 686/581/200 685/582/200 683/580/199
f 686/581/200 688/583/201 687/584/201 685/582/200
f 688/583/201 690/585/202 689/586/202 687/584/201
f 690/585/202 692/587/203 691/588/203 689/586/202
f 692/587/203 694/589/204 693/590/204 691/588/203
f 694/589/204 696/591/205 695/592/205 693/590/204
f 696/591/205 698/593/206 697/594/206 695/592/205
f 698/593/206 700/595/207 699/596/207 697/594/206
f 700/595/207 702/597/208 701/598/208 699/596/207
f 702/597/208 704/599/209 703/600/209 701/598/208
f 704/599/209 706/601/210 705/602/210 703/600/209
f 706/601/210 708/603/211 707/604/211 705/602/210
f 708/603/211 710/605/212 709/606/212 707/604/211
f 710/605/212 712/607/213 711/608/213 709/606/212
f 712/607/213 714/609/214 713/610/214 711/608/213
f 714/609/214 716/611/215 715/612/215 713/610/214
f 716/611/215 424/613/69 423/190/69 715/612/215
